<svg xmlns="http://www.w3.org/2000/svg" xmlns:v="https://svgstorm.com"
viewBox = "0 0 786 498"
width="786"
height="498">
<g fill="None" fill-opacity="0.0" stroke="#000000" stroke-opacity="0.00" stroke-width="0.3"><path d="
M 0.00 333.00 
C 7.93 335.00 13.17 331.00 19.00 327.00
C 22.34 324.71 25.94 322.91 29.00 321.00
C 32.01 318.22 35.65 315.23 39.00 313.00
C 43.14 309.57 47.53 306.23 52.00 303.00
C 57.47 301.21 64.38 295.37 69.00 292.00
C 73.30 288.87 77.33 284.90 82.00 282.00
C 82.36 281.78 83.00 282.00 83.00 282.00
C 86.94 276.36 96.02 270.30 102.00 267.00
C 107.11 264.18 111.30 262.17 115.00 258.00
C 120.92 251.35 129.00 246.53 136.00 241.00
C 138.38 239.12 140.56 238.50 143.00 237.00
C 148.44 232.16 155.47 226.58 162.00 221.00
C 172.86 211.72 184.99 203.10 195.00 193.00
C 195.70 192.04 196.18 191.72 197.00 191.00
C 202.80 185.89 209.08 179.96 215.00 175.00
C 235.57 157.77 254.79 134.95 272.00 115.00
C 273.61 113.14 275.18 111.56 277.00 110.00
C 281.33 105.31 285.91 99.74 290.00 95.00
C 292.29 92.34 294.87 89.47 297.00 87.00
C 298.31 85.48 299.52 84.26 301.00 83.00
C 304.49 78.99 307.43 74.67 311.00 71.00
C 313.41 68.51 315.90 65.44 318.00 63.00
C 321.89 58.49 325.57 53.79 330.00 50.00
C 334.36 44.64 337.31 38.06 343.00 34.00
C 345.47 32.24 348.57 30.22 351.00 29.00
C 355.22 26.89 365.64 28.55 373.00 28.00 C 380.36 27.45 390.27 28.35 397.00 29.00
C 412.07 29.00 436.72 24.41 449.00 33.00
C 456.46 38.22 460.23 46.68 466.00 53.00
C 467.20 54.00 468.02 54.88 469.00 56.00
C 470.53 57.74 472.25 59.40 474.00 61.00
C 478.60 65.21 483.36 69.91 487.00 75.00
C 488.12 76.57 488.71 78.53 490.00 80.00
C 491.50 81.28 492.71 82.62 494.00 84.00
C 498.14 88.43 502.93 92.24 507.00 97.00
C 510.46 101.05 514.94 104.71 518.00 109.00
C 519.90 111.65 521.64 114.64 524.00 117.00
C 527.64 120.64 531.60 124.18 535.00 128.00
C 537.18 130.45 539.59 133.59 542.00 136.00
C 547.37 140.59 552.09 146.09 557.00 151.00
C 567.68 161.68 578.12 173.62 590.00 183.00
C 593.63 185.87 597.24 189.35 600.00 193.00
C 600.63 193.84 601.29 195.34 602.00 196.00
C 605.43 198.45 608.31 200.59 611.00 204.00
C 617.86 210.34 625.85 215.83 633.00 222.00
C 637.71 226.06 642.09 230.50 647.00 234.00
C 656.97 241.12 672.05 251.09 679.00 261.00
C 679.30 261.24 680.00 261.00 680.00 261.00
C 689.49 265.64 698.01 275.43 706.00 282.00
C 707.47 282.95 709.43 283.86 711.00 285.00
C 719.35 291.08 727.54 297.54 736.00 303.00
C 739.62 305.33 742.96 308.27 746.00 311.00
C 749.11 313.80 752.98 316.20 756.00 319.00
C 758.13 320.59 760.75 321.61 763.00 323.00
C 766.90 325.42 770.50 328.36 774.00 331.00
C 775.63 332.23 775.73 332.75 778.00 333.00
C 780.64 333.29 783.36 332.79 786.00 333.00
L 786.00 0.00
L 0.00 0.00
L 0.00 333.00 Z"/>
</g>
<g fill="None" fill-opacity="0.0" stroke="#555555" stroke-opacity="0.00" stroke-width="0.3"><path d="
M 351.00 29.00 
C 364.64 25.83 382.93 29.00 397.00 29.00
C 390.27 28.35 380.36 27.45 373.00 28.00 C 365.64 28.55 355.22 26.89 351.00 29.00 Z"/>
</g>
<g fill="None" fill-opacity="0.0" stroke="#000000" stroke-opacity="1.00" stroke-width="0.3"><path d="
M 343.00 34.00 
C 338.08 38.46 335.33 45.45 330.00 50.00
C 325.57 53.79 321.89 58.49 318.00 63.00
C 316.85 64.78 313.14 68.39 311.00 71.00
C 307.82 74.87 305.03 79.56 301.00 83.00
C 299.52 84.26 298.31 85.48 297.00 87.00
C 295.45 89.40 291.61 95.12 289.00 98.00
C 285.33 102.04 281.02 106.57 277.00 110.00
C 275.18 111.56 273.61 113.14 272.00 115.00
C 258.42 135.99 233.78 156.22 215.00 175.00
C 208.65 181.35 201.73 187.59 196.00 194.00
C 195.47 192.72 196.97 192.14 197.00 191.00
C 196.18 191.72 195.70 192.04 195.00 193.00
C 187.57 203.18 171.58 214.80 162.00 221.00
C 155.47 226.58 148.44 232.16 143.00 237.00
C 139.36 240.24 133.41 244.55 131.00 246.00
C 125.95 250.19 118.20 255.02 115.00 258.00
C 111.30 262.17 107.11 264.18 102.00 267.00
C 99.54 268.74 94.25 274.98 92.08 276.08 C 89.92 277.19 83.55 282.31 83.00 282.00
C 83.00 282.00 82.36 281.78 82.00 282.00
C 80.33 287.19 73.26 288.83 69.00 292.00
C 64.75 295.16 57.49 303.41 52.00 304.00
C 48.92 306.68 47.77 308.05 44.00 310.00
C 42.34 311.15 40.63 311.92 39.00 313.00
C 35.65 315.23 32.01 318.22 29.00 321.00
C 25.80 323.96 22.39 325.81 19.00 328.00
C 16.09 330.54 12.64 332.30 10.00 335.00
C 19.72 337.06 30.84 336.00 41.00 336.00
C 44.66 336.00 52.69 334.79 55.00 336.00
C 55.38 335.78 56.00 336.00 56.00 336.00
C 61.17 328.07 73.65 323.25 81.00 318.00
C 104.00 301.57 127.32 283.97 150.08 267.08 C 172.84 250.19 196.72 233.28 217.00 213.00
C 219.01 210.65 220.47 209.61 223.00 208.00
C 223.27 207.83 223.68 207.20 224.00 207.00
C 228.53 201.19 234.47 195.73 240.00 191.00
C 251.00 181.60 262.07 170.57 271.75 159.75 C 281.43 148.93 295.42 139.26 303.00 127.00
C 303.20 126.68 303.79 126.27 304.00 126.00
C 311.66 116.16 320.96 107.41 329.00 98.00
C 332.84 93.51 337.15 89.12 341.00 85.00
C 347.23 78.33 353.07 70.94 359.00 64.00
C 368.99 52.31 389.42 57.00 404.00 57.00
C 409.64 57.00 416.14 57.74 421.00 58.00
C 423.94 57.86 425.37 57.20 428.00 58.00
C 431.79 59.15 434.48 63.05 437.00 66.00
C 438.35 67.58 439.69 69.47 441.00 71.00
C 445.77 75.77 450.56 80.81 455.00 86.00
C 458.42 90.00 462.18 93.97 465.00 98.00
C 467.55 101.11 471.36 103.91 474.00 107.00
C 477.74 111.38 481.66 115.50 485.00 120.00
C 488.62 124.15 493.41 127.80 497.00 132.00
C 501.64 137.43 506.96 142.34 511.00 148.00
C 529.84 170.48 554.47 190.47 575.00 211.00
C 577.65 213.27 580.40 215.78 583.00 218.00
C 586.89 221.32 590.26 225.74 594.00 229.00
C 617.43 246.42 638.15 266.32 661.70 283.30 C 685.25 300.29 709.48 317.96 732.00 336.00
C 732.47 336.13 733.50 336.00 734.00 336.00
C 737.33 336.00 740.67 336.00 744.00 336.00
C 754.29 336.00 766.61 337.50 776.00 337.00
C 777.95 336.71 778.83 335.32 780.00 335.00
C 778.43 334.75 779.06 333.65 778.00 333.00
C 775.73 332.75 775.63 332.23 774.00 331.00
C 770.51 328.94 767.15 327.01 764.00 325.00
C 761.05 323.12 758.47 321.28 756.00 319.00
C 752.98 316.20 749.11 313.80 746.00 311.00
C 743.63 309.37 741.28 308.56 739.00 307.00
C 729.16 300.25 719.70 293.04 711.00 285.00
C 709.43 283.86 707.47 282.95 706.00 282.00
C 696.94 276.16 686.70 268.66 680.00 261.00
C 680.00 261.00 679.30 261.24 679.00 261.00
C 668.38 252.50 658.33 244.27 647.00 234.00
C 642.09 230.50 637.71 226.06 633.00 222.00
C 624.83 216.28 616.96 211.55 611.00 204.00
C 608.31 200.59 605.43 198.45 602.00 196.00
C 586.62 185.02 566.49 164.96 557.00 151.00
C 552.09 146.09 547.37 140.59 542.00 136.00
C 539.76 134.08 537.01 132.05 535.00 130.00
C 531.46 126.39 528.07 121.07 524.00 117.00
C 521.04 114.04 517.41 110.18 516.00 108.00
C 514.32 106.43 512.75 104.49 511.00 103.00
C 504.95 97.83 497.46 89.34 494.00 84.00
C 492.71 82.62 491.50 81.28 490.00 80.00
C 481.98 73.15 473.71 63.46 469.00 56.00
C 468.02 54.88 467.20 54.00 466.00 53.00
C 459.29 47.43 456.21 38.92 449.00 33.00
C 436.72 24.41 412.07 29.00 397.00 29.00
C 382.93 29.00 364.64 25.83 351.00 29.00
C 348.57 30.22 345.47 32.24 343.00 34.00 Z"/>
</g>
<g fill="None" fill-opacity="0.0" stroke="#010101" stroke-opacity="0.49" stroke-width="0.3"><path d="
M 466.00 53.00 
C 460.23 46.68 456.46 38.22 449.00 33.00
C 456.21 38.92 459.29 47.43 466.00 53.00 Z"/>
</g>
<g fill="None" fill-opacity="0.0" stroke="#010101" stroke-opacity="0.48" stroke-width="0.3"><path d="
M 330.00 50.00 
C 335.33 45.45 338.08 38.46 343.00 34.00
C 337.31 38.06 334.36 44.64 330.00 50.00 Z"/>
</g>
<g fill="None" fill-opacity="0.0" stroke="#010101" stroke-opacity="0.76" stroke-width="0.3"><path d="
M 490.00 80.00 
C 488.71 78.53 488.12 76.57 487.00 75.00
C 483.03 70.26 478.20 65.49 474.00 61.00
C 472.25 59.40 470.53 57.74 469.00 56.00
C 473.71 63.46 481.98 73.15 490.00 80.00 Z"/>
</g>
<g fill="None" fill-opacity="0.0" stroke="#2A2A2A" stroke-opacity="0.74" stroke-width="0.3"><path d="
M 359.00 64.00 
C 369.43 53.57 389.92 58.00 404.00 58.00
C 403.96 58.00 404.00 57.00 404.00 57.00
C 389.42 57.00 368.99 52.31 359.00 64.00 Z"/>
</g>
<g fill="None" fill-opacity="0.0" stroke="#525252" stroke-opacity="0.75" stroke-width="0.3"><path d="
M 404.00 58.00 
C 409.64 58.00 415.36 58.27 421.00 58.00
C 416.14 57.74 409.64 57.00 404.00 57.00
C 404.00 57.00 403.96 58.00 404.00 58.00 Z"/>
</g>
<g fill="None" fill-opacity="0.0" stroke="#070707" stroke-opacity="0.31" stroke-width="0.3"><path d="
M 421.00 58.00 
C 415.36 58.27 409.64 58.00 404.00 58.00
C 389.92 58.00 369.43 53.57 359.00 64.00
C 353.07 70.94 347.23 78.33 341.00 85.00
C 337.40 89.84 333.26 93.74 329.00 98.00
C 320.96 107.41 311.66 116.16 304.00 126.00
C 308.47 126.35 315.87 115.34 320.25 111.25 C 324.62 107.16 330.45 98.26 335.75 93.75 C 341.06 89.25 345.31 80.52 351.25 76.25 C 357.18 71.97 359.21 61.33 367.00 59.00
C 380.62 54.92 399.37 62.49 413.00 59.00 C 426.63 55.51 436.16 66.16 443.75 75.25 C 451.34 84.33 457.17 91.73 464.78 100.22 C 472.38 108.72 480.49 116.07 487.25 124.75 C 494.00 133.43 503.87 140.24 510.00 149.00
C 518.53 159.39 530.17 168.66 539.75 178.25 C 549.34 187.84 558.67 199.51 569.00 208.00
C 590.47 223.03 606.62 245.03 628.25 259.75 C 649.87 274.47 669.21 294.28 692.00 307.00
C 685.55 316.56 675.41 324.80 667.00 333.00
C 666.57 334.34 667.00 336.58 667.00 338.00
C 668.88 332.90 677.83 329.82 680.75 324.75 C 683.67 319.68 691.25 316.28 694.00 311.00
C 707.89 316.84 718.37 329.63 732.00 336.00
C 709.48 317.96 685.25 300.29 661.70 283.30 C 638.15 266.32 617.43 246.42 594.00 229.00
C 589.82 225.89 586.58 221.58 583.00 218.00
C 580.40 215.78 577.65 213.27 575.00 211.00
C 563.96 201.56 552.60 191.32 542.75 180.25 C 532.91 169.18 519.56 159.98 511.00 148.00
C 506.96 142.34 501.64 137.43 497.00 132.00
C 493.04 128.04 488.35 124.50 485.00 120.00
C 481.66 115.50 477.74 111.38 474.00 107.00
C 471.02 104.02 467.43 101.48 465.00 98.00
C 462.18 93.97 458.42 90.00 455.00 86.00
C 450.04 81.04 445.47 76.23 441.00 71.00
C 439.69 69.47 438.35 67.58 437.00 66.00
C 434.75 63.75 430.69 59.11 428.00 58.00
C 425.37 57.20 423.94 57.86 421.00 58.00 Z"/>
</g>
<g fill="None" fill-opacity="0.0" stroke="#131313" stroke-opacity="0.67" stroke-width="0.3"><path d="
M 437.00 66.00 
C 434.48 63.05 431.79 59.15 428.00 58.00
C 430.69 59.11 434.75 63.75 437.00 66.00 Z"/>
</g>
<g fill="None" fill-opacity="0.0" stroke="#0E0E0E" stroke-opacity="0.11" stroke-width="0.3"><path d="
M 304.00 126.00 
C 303.79 126.27 303.20 126.68 303.00 127.00
C 304.77 132.89 289.75 141.06 285.25 147.25 C 280.74 153.44 270.59 161.35 264.75 167.75 C 258.91 174.15 250.75 181.92 244.25 188.25 C 237.75 194.57 230.63 203.56 223.00 208.00
C 220.47 209.61 219.01 210.65 217.00 213.00
C 197.81 235.45 174.15 250.27 151.75 267.75 C 129.35 285.23 103.98 301.75 81.00 318.00
C 79.62 318.97 79.00 321.70 77.00 322.00
C 76.95 324.22 79.29 325.99 81.00 327.00
C 80.35 326.63 78.10 323.25 78.00 322.00
C 130.26 284.36 184.64 248.01 233.25 201.25 C 281.85 154.49 325.25 107.50 367.00 59.00
C 359.21 61.33 357.18 71.97 351.25 76.25 C 345.31 80.52 341.06 89.25 335.75 93.75 C 330.45 98.26 324.62 107.16 320.25 111.25 C 315.87 115.34 308.47 126.35 304.00 126.00 Z"/>
</g>
<g fill="None" fill-opacity="0.0" stroke="#000000" stroke-opacity="0.00" stroke-width="0.3"><path d="
M 81.00 327.00 
C 91.83 331.67 112.27 324.23 120.00 336.00
C 119.82 334.69 120.14 333.31 120.00 332.00
C 302.17 332.67 485.66 330.67 667.00 333.00
C 675.41 324.80 685.55 316.56 692.00 307.00
C 669.21 294.28 649.87 274.47 628.25 259.75 C 606.62 245.03 590.47 223.03 569.00 208.00
C 558.07 200.35 548.71 188.21 539.25 178.75 C 529.78 169.29 517.61 159.87 510.00 149.00
C 503.87 140.24 494.00 133.43 487.25 124.75 C 480.49 116.07 472.38 108.72 464.78 100.22 C 457.17 91.73 451.34 84.33 443.75 75.25 C 436.16 66.16 426.63 55.51 413.00 59.00 C 399.37 62.49 380.62 54.92 367.00 59.00
C 325.25 107.50 281.85 154.49 233.25 201.25 C 184.64 248.01 130.26 284.36 78.00 322.00
C 78.10 323.25 80.35 326.63 81.00 327.00
M 430.00 140.00 
C 427.17 146.17 422.42 136.67 430.00 140.00
M 534.00 224.00 
C 534.32 224.20 534.85 224.66 535.00 225.00
C 551.22 236.22 571.16 251.52 584.00 268.00
C 584.32 268.20 584.81 268.68 585.00 269.00
C 588.25 271.25 606.46 283.25 604.00 288.00
C 604.01 288.03 603.01 289.99 603.00 290.00
C 600.02 292.91 588.34 291.00 584.00 291.00
C 576.84 291.00 574.64 289.64 569.00 286.00
C 560.88 280.76 554.25 273.08 547.00 267.00
C 540.81 261.82 534.23 256.12 528.00 251.00
C 524.36 248.01 519.96 245.25 517.00 241.00
C 516.60 240.80 516.00 241.00 516.00 241.00
C 511.38 237.47 506.41 233.88 503.00 229.00
C 502.60 228.80 502.00 229.00 502.00 229.00
C 494.71 225.44 486.63 218.43 479.92 214.08 C 473.21 209.73 462.29 204.60 458.00 198.00
C 457.64 197.78 457.00 198.00 457.00 198.00
C 452.80 195.38 449.53 192.29 446.00 189.00
C 445.39 188.62 444.55 188.38 444.00 188.00
C 440.18 185.39 437.44 181.83 434.00 179.00
C 433.14 178.29 429.25 175.90 428.00 176.00
C 423.36 181.02 418.44 186.75 413.25 191.25 C 408.05 195.75 403.72 202.63 398.25 206.25 C 392.78 209.87 388.47 220.31 382.00 221.00
C 381.28 221.43 379.59 220.33 379.00 220.00
C 363.48 211.48 354.09 191.30 340.00 181.00
C 337.29 180.79 331.22 186.48 329.00 188.00
C 327.29 189.17 325.59 190.04 324.00 191.00
C 319.03 195.08 314.15 199.06 309.00 203.00
C 308.68 203.24 308.00 203.00 308.00 203.00
C 304.06 209.05 290.82 216.86 284.00 219.00
C 276.80 219.65 269.23 219.00 262.00 219.00
C 258.79 219.00 254.40 219.77 252.00 218.00
C 251.70 217.78 251.04 217.35 251.00 217.00
C 250.11 209.15 264.96 202.43 270.75 197.75 C 276.55 193.07 287.18 185.68 293.75 180.75 C 300.33 175.83 309.86 167.91 316.75 163.75 C 323.64 159.59 333.14 147.73 341.00 148.00
C 341.50 148.02 342.00 148.00 342.00 148.00
C 351.10 149.78 353.31 162.98 361.25 167.75 C 369.19 172.52 373.05 183.29 380.00 189.00
C 396.98 176.98 407.48 155.50 426.00 145.00
C 426.47 144.89 427.00 145.00 427.00 145.00
C 437.99 143.35 446.17 158.39 455.30 162.70 C 464.42 167.01 475.20 175.09 483.75 181.25 C 492.30 187.40 501.52 194.29 509.75 201.25 C 517.98 208.21 527.05 215.08 534.00 224.00 Z"/>
</g>
<g fill="None" fill-opacity="0.0" stroke="#010101" stroke-opacity="0.24" stroke-width="0.3"><path d="
M 487.00 75.00 
C 483.36 69.91 478.60 65.21 474.00 61.00
C 478.20 65.49 483.03 70.26 487.00 75.00 Z"/>
</g>
<g fill="None" fill-opacity="0.0" stroke="#020202" stroke-opacity="0.65" stroke-width="0.3"><path d="
M 311.00 71.00 
C 313.14 68.39 316.85 64.78 318.00 63.00
C 315.90 65.44 313.41 68.51 311.00 71.00 Z"/>
</g>
<g fill="None" fill-opacity="0.0" stroke="#010101" stroke-opacity="0.47" stroke-width="0.3"><path d="
M 301.00 83.00 
C 305.03 79.56 307.82 74.87 311.00 71.00
C 307.43 74.67 304.49 78.99 301.00 83.00 Z"/>
</g>
<g fill="None" fill-opacity="0.0" stroke="#0F0F0F" stroke-opacity="0.60" stroke-width="0.3"><path d="
M 455.00 86.00 
C 450.56 80.81 445.77 75.77 441.00 71.00
C 445.47 76.23 450.04 81.04 455.00 86.00 Z"/>
</g>
<g fill="None" fill-opacity="0.0" stroke="#010101" stroke-opacity="0.60" stroke-width="0.3"><path d="
M 511.00 103.00 
C 509.28 101.28 507.42 97.64 507.00 97.00
C 502.93 92.24 498.14 88.43 494.00 84.00
C 497.46 89.34 504.95 97.83 511.00 103.00 Z"/>
</g>
<g fill="None" fill-opacity="0.0" stroke="#0E0E0E" stroke-opacity="0.60" stroke-width="0.3"><path d="
M 329.00 98.00 
C 333.26 93.74 337.40 89.84 341.00 85.00
C 337.15 89.12 332.84 93.51 329.00 98.00 Z"/>
</g>
<g fill="None" fill-opacity="0.0" stroke="#010101" stroke-opacity="0.72" stroke-width="0.3"><path d="
M 290.00 95.00 
C 289.58 95.88 289.65 97.10 289.00 98.00
C 291.61 95.12 295.45 89.40 297.00 87.00
C 294.87 89.47 292.29 92.34 290.00 95.00 Z"/>
</g>
<g fill="None" fill-opacity="0.0" stroke="#020202" stroke-opacity="0.55" stroke-width="0.3"><path d="
M 277.00 110.00 
C 281.02 106.57 285.33 102.04 289.00 98.00
C 289.65 97.10 289.58 95.88 290.00 95.00
C 285.91 99.74 281.33 105.31 277.00 110.00 Z"/>
</g>
<g fill="None" fill-opacity="0.0" stroke="#020202" stroke-opacity="0.20" stroke-width="0.3"><path d="
M 511.00 103.00 
C 512.75 104.49 514.32 106.43 516.00 108.00
C 516.45 108.42 517.65 108.62 518.00 109.00
C 514.94 104.71 510.46 101.05 507.00 97.00
C 507.42 97.64 509.28 101.28 511.00 103.00 Z"/>
</g>
<g fill="None" fill-opacity="0.0" stroke="#0E0E0E" stroke-opacity="0.58" stroke-width="0.3"><path d="
M 474.00 107.00 
C 471.36 103.91 467.55 101.11 465.00 98.00
C 467.43 101.48 471.02 104.02 474.00 107.00 Z"/>
</g>
<g fill="None" fill-opacity="0.0" stroke="#020202" stroke-opacity="0.68" stroke-width="0.3"><path d="
M 524.00 117.00 
C 521.64 114.64 519.90 111.65 518.00 109.00
C 517.65 108.62 516.45 108.42 516.00 108.00
C 517.41 110.18 521.04 114.04 524.00 117.00 Z"/>
</g>
<g fill="None" fill-opacity="0.0" stroke="#030303" stroke-opacity="0.51" stroke-width="0.3"><path d="
M 215.00 175.00 
C 233.78 156.22 258.42 135.99 272.00 115.00
C 254.79 134.95 235.57 157.77 215.00 175.00 Z"/>
</g>
<g fill="None" fill-opacity="0.0" stroke="#000000" stroke-opacity="0.82" stroke-width="0.3"><path d="
M 535.00 130.00 
C 534.76 129.69 535.15 128.45 535.00 128.00
C 531.60 124.18 527.64 120.64 524.00 117.00
C 528.07 121.07 531.46 126.39 535.00 130.00 Z"/>
</g>
<g fill="None" fill-opacity="0.0" stroke="#0D0D0D" stroke-opacity="0.64" stroke-width="0.3"><path d="
M 497.00 132.00 
C 493.41 127.80 488.62 124.15 485.00 120.00
C 488.35 124.50 493.04 128.04 497.00 132.00 Z"/>
</g>
<g fill="None" fill-opacity="0.0" stroke="#080808" stroke-opacity="0.40" stroke-width="0.3"><path d="
M 240.00 191.00 
C 234.93 196.07 230.14 203.21 224.00 207.00
C 223.68 207.20 223.27 207.83 223.00 208.00
C 230.63 203.56 237.75 194.57 244.25 188.25 C 250.75 181.92 258.91 174.15 264.75 167.75 C 270.59 161.35 280.74 153.44 285.25 147.25 C 289.75 141.06 304.77 132.89 303.00 127.00
C 295.42 139.26 281.43 148.93 271.75 159.75 C 262.07 170.57 251.00 181.60 240.00 191.00 Z"/>
</g>
<g fill="None" fill-opacity="0.0" stroke="#050505" stroke-opacity="0.58" stroke-width="0.3"><path d="
M 535.00 130.00 
C 537.01 132.05 539.76 134.08 542.00 136.00
C 539.59 133.59 537.18 130.45 535.00 128.00
C 535.15 128.45 534.76 129.69 535.00 130.00 Z"/>
</g>
<g fill="None" fill-opacity="0.0" stroke="#000000" stroke-opacity="0.40" stroke-width="0.3"><path d="
M 430.00 140.00 
C 422.42 136.67 427.17 146.17 430.00 140.00 Z"/>
</g>
<g fill="None" fill-opacity="0.0" stroke="#060606" stroke-opacity="0.30" stroke-width="0.3"><path d="
M 342.00 148.00 
C 344.56 151.67 348.47 154.39 351.00 158.00
C 354.09 162.41 358.34 166.71 362.00 171.00
C 366.32 175.32 370.29 179.30 374.00 184.00
C 382.95 195.33 390.87 182.58 397.00 174.00
C 403.72 164.59 414.88 153.98 424.00 147.00
C 424.86 146.35 425.31 145.66 426.00 145.00
C 407.48 155.50 396.98 176.98 380.00 189.00
C 373.05 183.29 369.19 172.52 361.25 167.75 C 353.31 162.98 351.10 149.78 342.00 148.00 Z"/>
</g>
<g fill="None" fill-opacity="0.0" stroke="#000000" stroke-opacity="1.00" stroke-width="0.3"><path d="
M 424.00 147.00 
C 415.29 155.64 404.80 164.69 397.00 174.00
C 390.87 182.58 382.95 195.33 374.00 184.00
C 369.92 179.92 365.82 175.47 362.00 171.00
C 358.34 166.71 354.09 162.41 351.00 158.00
C 348.51 154.97 344.18 151.22 341.00 149.00
C 333.05 153.56 324.94 159.07 317.77 164.77 C 310.60 170.47 301.72 176.18 294.92 181.92 C 288.12 187.66 278.48 192.63 272.75 198.75 C 267.02 204.88 252.60 208.83 251.00 217.00
C 251.04 217.35 251.70 217.78 252.00 218.00
C 255.18 218.46 258.78 218.00 262.00 218.00
C 269.23 218.00 276.80 217.35 284.00 218.00
C 292.39 213.51 299.93 208.02 308.00 203.00
C 308.00 203.00 308.68 203.24 309.00 203.00
C 312.62 197.83 318.79 194.16 324.00 191.00
C 325.59 190.04 327.29 189.17 329.00 188.00
C 337.94 180.28 341.71 179.46 348.77 188.23 C 355.83 197.00 359.63 199.63 367.00 207.00
C 369.99 209.99 373.32 212.74 376.00 216.00
C 376.86 217.05 377.98 219.28 379.00 220.00
C 379.59 220.33 381.28 221.43 382.00 221.00
C 382.05 220.99 382.00 220.00 382.00 220.00
C 389.87 212.94 399.24 202.04 407.25 195.25 C 415.25 188.45 425.10 170.10 434.00 179.00
C 437.17 182.17 440.82 185.03 444.00 188.00
C 444.55 188.38 445.39 188.62 446.00 189.00
C 449.67 191.28 454.66 194.41 457.00 198.00
C 457.00 198.00 457.64 197.78 458.00 198.00
C 465.46 202.64 473.01 207.89 480.08 212.92 C 487.16 217.95 496.78 221.54 502.00 229.00
C 502.00 229.00 502.60 228.80 503.00 229.00
C 507.51 231.21 513.15 236.92 516.00 241.00
C 516.00 241.00 516.60 240.80 517.00 241.00
C 521.39 243.15 524.42 248.06 528.00 251.00
C 534.01 255.94 540.72 262.42 547.00 267.00
C 554.62 272.55 561.79 279.72 569.00 286.00
C 574.64 289.64 576.84 291.00 584.00 291.00
C 588.02 290.61 599.07 291.80 603.00 290.00
C 603.01 289.99 604.01 288.03 604.00 288.00
C 603.92 287.75 603.20 287.32 603.00 287.00
C 597.88 283.01 593.48 277.38 588.00 274.00
C 587.68 273.80 587.26 273.22 587.00 273.00
C 585.61 272.16 584.81 271.34 584.00 270.00
C 583.78 269.74 583.27 269.21 583.00 269.00
C 581.26 267.93 579.50 266.28 578.00 265.00
C 573.51 261.17 569.26 256.68 565.00 253.00
C 551.75 243.91 540.21 231.44 528.00 221.00
C 524.28 217.82 520.50 214.02 517.00 211.00
C 489.62 187.37 459.37 164.51 429.00 146.00
C 427.46 145.72 428.07 145.72 427.00 145.00
C 427.00 145.00 426.47 144.89 426.00 145.00
C 425.31 145.66 424.86 146.35 424.00 147.00 Z"/>
</g>
<g fill="None" fill-opacity="0.0" stroke="#111111" stroke-opacity="0.08" stroke-width="0.3"><path d="
M 429.00 146.00 
C 442.74 148.51 452.83 164.76 465.75 170.25 C 478.67 175.74 489.06 188.53 501.25 195.75 C 513.43 202.98 521.84 216.48 534.00 224.00
C 527.05 215.08 517.98 208.21 509.75 201.25 C 501.52 194.29 492.30 187.40 483.75 181.25 C 475.20 175.09 464.42 167.01 455.30 162.70 C 446.17 158.39 437.99 143.35 427.00 145.00
C 428.07 145.72 427.46 145.72 429.00 146.00 Z"/>
</g>
<g fill="None" fill-opacity="0.0" stroke="#070707" stroke-opacity="0.35" stroke-width="0.3"><path d="
M 517.00 211.00 
C 521.03 213.82 524.39 217.38 528.00 221.00
C 540.21 231.44 551.75 243.91 565.00 253.00
C 570.00 256.43 573.74 260.74 578.00 265.00
C 579.50 266.28 581.26 267.93 583.00 269.00
C 583.32 269.20 583.81 269.68 584.00 270.00
C 584.81 271.34 585.61 272.16 587.00 273.00
C 587.32 273.19 587.73 273.79 588.00 274.00
C 593.48 277.38 597.88 283.01 603.00 287.00
C 598.59 279.87 589.02 275.75 585.00 269.00
C 584.81 268.68 584.32 268.20 584.00 268.00
C 578.23 264.44 573.18 257.84 567.97 254.03 C 562.77 250.21 555.66 243.59 551.32 239.68 C 546.99 235.77 536.92 229.35 535.00 225.00
C 534.85 224.66 534.32 224.20 534.00 224.00
C 521.84 216.48 513.43 202.98 501.25 195.75 C 489.06 188.53 478.67 175.74 465.75 170.25 C 452.83 164.76 442.74 148.51 429.00 146.00
C 459.37 164.51 489.62 187.37 517.00 211.00 Z"/>
</g>
<g fill="None" fill-opacity="0.0" stroke="#101010" stroke-opacity="0.59" stroke-width="0.3"><path d="
M 397.00 174.00 
C 404.80 164.69 415.29 155.64 424.00 147.00
C 414.88 153.98 403.72 164.59 397.00 174.00 Z"/>
</g>
<g fill="None" fill-opacity="0.0" stroke="#070707" stroke-opacity="0.36" stroke-width="0.3"><path d="
M 251.00 217.00 
C 252.60 208.83 267.02 204.88 272.75 198.75 C 278.48 192.63 288.12 187.66 294.92 181.92 C 301.72 176.18 310.60 170.47 317.77 164.77 C 324.94 159.07 333.05 153.56 341.00 149.00
C 340.77 148.84 341.00 148.00 341.00 148.00
C 333.14 147.73 323.64 159.59 316.75 163.75 C 309.86 167.91 300.33 175.83 293.75 180.75 C 287.18 185.68 276.55 193.07 270.75 197.75 C 264.96 202.43 250.11 209.15 251.00 217.00 Z"/>
</g>
<g fill="None" fill-opacity="0.0" stroke="#0C0C0C" stroke-opacity="0.52" stroke-width="0.3"><path d="
M 341.00 149.00 
C 344.18 151.22 348.51 154.97 351.00 158.00
C 348.47 154.39 344.56 151.67 342.00 148.00
C 342.00 148.00 341.50 148.02 341.00 148.00
C 341.00 148.00 340.77 148.84 341.00 149.00 Z"/>
</g>
<g fill="None" fill-opacity="0.0" stroke="#0A0A0A" stroke-opacity="0.51" stroke-width="0.3"><path d="
M 575.00 211.00 
C 554.47 190.47 529.84 170.48 511.00 148.00
C 519.56 159.98 532.91 169.18 542.75 180.25 C 552.60 191.32 563.96 201.56 575.00 211.00 Z"/>
</g>
<g fill="None" fill-opacity="0.0" stroke="#141414" stroke-opacity="0.20" stroke-width="0.3"><path d="
M 569.00 208.00 
C 558.67 199.51 549.34 187.84 539.75 178.25 C 530.17 168.66 518.53 159.39 510.00 149.00
C 517.61 159.87 529.78 169.29 539.25 178.75 C 548.71 188.21 558.07 200.35 569.00 208.00 Z"/>
</g>
<g fill="None" fill-opacity="0.0" stroke="#020202" stroke-opacity="0.61" stroke-width="0.3"><path d="
M 602.00 196.00 
C 601.29 195.34 600.63 193.84 600.00 193.00
C 597.04 189.77 593.17 185.93 590.00 183.00
C 578.12 173.62 567.68 161.68 557.00 151.00
C 566.49 164.96 586.62 185.02 602.00 196.00 Z"/>
</g>
<g fill="None" fill-opacity="0.0" stroke="#0F0F0F" stroke-opacity="0.63" stroke-width="0.3"><path d="
M 374.00 184.00 
C 370.29 179.30 366.32 175.32 362.00 171.00
C 365.82 175.47 369.92 179.92 374.00 184.00 Z"/>
</g>
<g fill="None" fill-opacity="0.0" stroke="#010101" stroke-opacity="0.69" stroke-width="0.3"><path d="
M 197.00 191.00 
C 196.97 192.14 195.47 192.72 196.00 194.00
C 201.73 187.59 208.65 181.35 215.00 175.00
C 209.08 179.96 202.80 185.89 197.00 191.00 Z"/>
</g>
<g fill="None" fill-opacity="0.0" stroke="#060606" stroke-opacity="0.58" stroke-width="0.3"><path d="
M 382.00 220.00 
C 388.23 217.96 392.44 209.43 397.75 205.75 C 403.07 202.07 407.43 193.73 412.75 190.75 C 418.07 187.77 422.20 176.48 428.00 176.00
C 429.25 175.90 433.14 178.29 434.00 179.00
C 425.10 170.10 415.25 188.45 407.25 195.25 C 399.24 202.04 389.87 212.94 382.00 220.00 Z"/>
</g>
<g fill="None" fill-opacity="0.0" stroke="#101010" stroke-opacity="0.12" stroke-width="0.3"><path d="
M 382.00 220.00 
C 382.00 220.00 382.05 220.99 382.00 221.00
C 388.47 220.31 392.78 209.87 398.25 206.25 C 403.72 202.63 408.05 195.75 413.25 191.25 C 418.44 186.75 423.36 181.02 428.00 176.00
C 422.20 176.48 418.07 187.77 412.75 190.75 C 407.43 193.73 403.07 202.07 397.75 205.75 C 392.44 209.43 388.23 217.96 382.00 220.00 Z"/>
</g>
<g fill="None" fill-opacity="0.0" stroke="#090909" stroke-opacity="0.41" stroke-width="0.3"><path d="
M 444.00 188.00 
C 440.82 185.03 437.17 182.17 434.00 179.00
C 437.44 181.83 440.18 185.39 444.00 188.00 Z"/>
</g>
<g fill="None" fill-opacity="0.0" stroke="#090909" stroke-opacity="0.49" stroke-width="0.3"><path d="
M 329.00 188.00 
C 331.22 186.48 337.29 180.79 340.00 181.00
C 344.65 181.35 349.28 190.76 353.25 193.75 C 357.22 196.74 363.37 203.37 367.00 207.00
C 359.63 199.63 355.83 197.00 348.77 188.23 C 341.71 179.46 337.94 180.28 329.00 188.00 Z"/>
</g>
<g fill="None" fill-opacity="0.0" stroke="#030303" stroke-opacity="0.20" stroke-width="0.3"><path d="
M 379.00 220.00 
C 377.98 219.28 376.86 217.05 376.00 216.00
C 373.17 213.06 369.85 209.85 367.00 207.00
C 363.37 203.37 357.22 196.74 353.25 193.75 C 349.28 190.76 344.65 181.35 340.00 181.00
C 354.09 191.30 363.48 211.48 379.00 220.00 Z"/>
</g>
<g fill="None" fill-opacity="0.0" stroke="#000000" stroke-opacity="0.17" stroke-width="0.3"><path d="
M 600.00 193.00 
C 597.24 189.35 593.63 185.87 590.00 183.00
C 593.17 185.93 597.04 189.77 600.00 193.00 Z"/>
</g>
<g fill="None" fill-opacity="0.0" stroke="#080808" stroke-opacity="0.51" stroke-width="0.3"><path d="
M 457.00 198.00 
C 454.66 194.41 449.67 191.28 446.00 189.00
C 449.53 192.29 452.80 195.38 457.00 198.00 Z"/>
</g>
<g fill="None" fill-opacity="0.0" stroke="#131313" stroke-opacity="0.64" stroke-width="0.3"><path d="
M 224.00 207.00 
C 230.14 203.21 234.93 196.07 240.00 191.00
C 234.47 195.73 228.53 201.19 224.00 207.00 Z"/>
</g>
<g fill="None" fill-opacity="0.0" stroke="#070707" stroke-opacity="0.49" stroke-width="0.3"><path d="
M 309.00 203.00 
C 314.15 199.06 319.03 195.08 324.00 191.00
C 318.79 194.16 312.62 197.83 309.00 203.00 Z"/>
</g>
<g fill="None" fill-opacity="0.0" stroke="#010101" stroke-opacity="0.68" stroke-width="0.3"><path d="
M 162.00 221.00 
C 171.58 214.80 187.57 203.18 195.00 193.00
C 184.99 203.10 172.86 211.72 162.00 221.00 Z"/>
</g>
<g fill="None" fill-opacity="0.0" stroke="#080808" stroke-opacity="0.47" stroke-width="0.3"><path d="
M 502.00 229.00 
C 496.78 221.54 487.16 217.95 480.08 212.92 C 473.01 207.89 465.46 202.64 458.00 198.00
C 462.29 204.60 473.21 209.73 479.92 214.08 C 486.63 218.43 494.71 225.44 502.00 229.00 Z"/>
</g>
<g fill="None" fill-opacity="0.0" stroke="#080808" stroke-opacity="0.45" stroke-width="0.3"><path d="
M 284.00 218.00 
C 283.79 218.11 284.00 219.00 284.00 219.00
C 290.82 216.86 304.06 209.05 308.00 203.00
C 299.93 208.02 292.39 213.51 284.00 218.00 Z"/>
</g>
<g fill="None" fill-opacity="0.0" stroke="#010101" stroke-opacity="0.48" stroke-width="0.3"><path d="
M 633.00 222.00 
C 625.85 215.83 617.86 210.34 611.00 204.00
C 616.96 211.55 624.83 216.28 633.00 222.00 Z"/>
</g>
<g fill="None" fill-opacity="0.0" stroke="#0B0B0B" stroke-opacity="0.76" stroke-width="0.3"><path d="
M 376.00 216.00 
C 373.32 212.74 369.99 209.99 367.00 207.00
C 369.85 209.85 373.17 213.06 376.00 216.00 Z"/>
</g>
<g fill="None" fill-opacity="0.0" stroke="#0E0E0E" stroke-opacity="0.64" stroke-width="0.3"><path d="
M 528.00 221.00 
C 524.39 217.38 521.03 213.82 517.00 211.00
C 520.50 214.02 524.28 217.82 528.00 221.00 Z"/>
</g>
<g fill="None" fill-opacity="0.0" stroke="#070707" stroke-opacity="0.37" stroke-width="0.3"><path d="
M 81.00 318.00 
C 103.98 301.75 129.35 285.23 151.75 267.75 C 174.15 250.27 197.81 235.45 217.00 213.00
C 196.72 233.28 172.84 250.19 150.08 267.08 C 127.32 283.97 104.00 301.57 81.00 318.00 Z"/>
</g>
<g fill="None" fill-opacity="0.0" stroke="#050505" stroke-opacity="0.24" stroke-width="0.3"><path d="
M 262.00 219.00 
C 261.96 219.00 262.00 218.00 262.00 218.00
C 258.78 218.00 255.18 218.46 252.00 218.00
C 254.40 219.77 258.79 219.00 262.00 219.00 Z"/>
</g>
<g fill="None" fill-opacity="0.0" stroke="#030303" stroke-opacity="0.60" stroke-width="0.3"><path d="
M 262.00 219.00 
C 269.23 219.00 276.80 219.65 284.00 219.00
C 284.00 219.00 283.79 218.11 284.00 218.00
C 276.80 217.35 269.23 218.00 262.00 218.00
C 262.00 218.00 261.96 219.00 262.00 219.00 Z"/>
</g>
<g fill="None" fill-opacity="0.0" stroke="#121212" stroke-opacity="0.63" stroke-width="0.3"><path d="
M 594.00 229.00 
C 590.26 225.74 586.89 221.32 583.00 218.00
C 586.58 221.58 589.82 225.89 594.00 229.00 Z"/>
</g>
<g fill="None" fill-opacity="0.0" stroke="#121212" stroke-opacity="0.07" stroke-width="0.3"><path d="
M 584.00 268.00 
C 571.16 251.52 551.22 236.22 535.00 225.00
C 536.92 229.35 546.99 235.77 551.32 239.68 C 555.66 243.59 562.77 250.21 567.97 254.03 C 573.18 257.84 578.23 264.44 584.00 268.00 Z"/>
</g>
<g fill="None" fill-opacity="0.0" stroke="#080808" stroke-opacity="0.55" stroke-width="0.3"><path d="
M 516.00 241.00 
C 513.15 236.92 507.51 231.21 503.00 229.00
C 506.41 233.88 511.38 237.47 516.00 241.00 Z"/>
</g>
<g fill="None" fill-opacity="0.0" stroke="#010101" stroke-opacity="0.41" stroke-width="0.3"><path d="
M 679.00 261.00 
C 672.05 251.09 656.97 241.12 647.00 234.00
C 658.33 244.27 668.38 252.50 679.00 261.00 Z"/>
</g>
<g fill="None" fill-opacity="0.0" stroke="#010101" stroke-opacity="0.67" stroke-width="0.3"><path d="
M 136.00 241.00 
C 134.30 242.57 132.78 244.52 131.00 246.00
C 133.41 244.55 139.36 240.24 143.00 237.00
C 140.56 238.50 138.38 239.12 136.00 241.00 Z"/>
</g>
<g fill="None" fill-opacity="0.0" stroke="#020202" stroke-opacity="0.30" stroke-width="0.3"><path d="
M 115.00 258.00 
C 118.20 255.02 125.95 250.19 131.00 246.00
C 132.78 244.52 134.30 242.57 136.00 241.00
C 129.00 246.53 120.92 251.35 115.00 258.00 Z"/>
</g>
<g fill="None" fill-opacity="0.0" stroke="#060606" stroke-opacity="0.58" stroke-width="0.3"><path d="
M 528.00 251.00 
C 524.42 248.06 521.39 243.15 517.00 241.00
C 519.96 245.25 524.36 248.01 528.00 251.00 Z"/>
</g>
<g fill="None" fill-opacity="0.0" stroke="#070707" stroke-opacity="0.45" stroke-width="0.3"><path d="
M 547.00 267.00 
C 540.72 262.42 534.01 255.94 528.00 251.00
C 534.23 256.12 540.81 261.82 547.00 267.00 Z"/>
</g>
<g fill="None" fill-opacity="0.0" stroke="#0D0D0D" stroke-opacity="0.60" stroke-width="0.3"><path d="
M 578.00 265.00 
C 573.74 260.74 570.00 256.43 565.00 253.00
C 569.26 256.68 573.51 261.17 578.00 265.00 Z"/>
</g>
<g fill="None" fill-opacity="0.0" stroke="#020202" stroke-opacity="0.45" stroke-width="0.3"><path d="
M 706.00 282.00 
C 698.01 275.43 689.49 265.64 680.00 261.00
C 686.70 268.66 696.94 276.16 706.00 282.00 Z"/>
</g>
<g fill="None" fill-opacity="0.0" stroke="#010101" stroke-opacity="0.47" stroke-width="0.3"><path d="
M 83.00 282.00 
C 83.55 282.31 89.92 277.19 92.08 276.08 C 94.25 274.98 99.54 268.74 102.00 267.00
C 96.02 270.30 86.94 276.36 83.00 282.00 Z"/>
</g>
<g fill="None" fill-opacity="0.0" stroke="#060606" stroke-opacity="0.58" stroke-width="0.3"><path d="
M 569.00 286.00 
C 561.79 279.72 554.62 272.55 547.00 267.00
C 554.25 273.08 560.88 280.76 569.00 286.00 Z"/>
</g>
<g fill="None" fill-opacity="0.0" stroke="#151515" stroke-opacity="0.46" stroke-width="0.3"><path d="
M 584.00 270.00 
C 583.81 269.68 583.32 269.20 583.00 269.00
C 583.27 269.21 583.78 269.74 584.00 270.00 Z"/>
</g>
<g fill="None" fill-opacity="0.0" stroke="#0D0D0D" stroke-opacity="0.13" stroke-width="0.3"><path d="
M 603.00 287.00 
C 603.20 287.32 603.92 287.75 604.00 288.00
C 606.46 283.25 588.25 271.25 585.00 269.00
C 589.02 275.75 598.59 279.87 603.00 287.00 Z"/>
</g>
<g fill="None" fill-opacity="0.0" stroke="#0F0F0F" stroke-opacity="0.86" stroke-width="0.3"><path d="
M 588.00 274.00 
C 587.73 273.79 587.32 273.19 587.00 273.00
C 587.26 273.22 587.68 273.80 588.00 274.00 Z"/>
</g>
<g fill="None" fill-opacity="0.0" stroke="#010101" stroke-opacity="0.69" stroke-width="0.3"><path d="
M 69.00 292.00 
C 73.26 288.83 80.33 287.19 82.00 282.00
C 77.33 284.90 73.30 288.87 69.00 292.00 Z"/>
</g>
<g fill="None" fill-opacity="0.0" stroke="#010101" stroke-opacity="0.62" stroke-width="0.3"><path d="
M 739.00 307.00 
C 737.89 305.99 737.08 303.93 736.00 303.00
C 727.54 297.54 719.35 291.08 711.00 285.00
C 719.70 293.04 729.16 300.25 739.00 307.00 Z"/>
</g>
<g fill="None" fill-opacity="0.0" stroke="#5F5F5F" stroke-opacity="0.24" stroke-width="0.3"><path d="
M 584.00 291.00 
C 588.34 291.00 600.02 292.91 603.00 290.00
C 599.07 291.80 588.02 290.61 584.00 291.00 Z"/>
</g>
<g fill="None" fill-opacity="0.0" stroke="#010101" stroke-opacity="0.55" stroke-width="0.3"><path d="
M 52.00 303.00 
C 51.85 303.05 52.00 304.00 52.00 304.00
C 57.49 303.41 64.75 295.16 69.00 292.00
C 64.38 295.37 57.47 301.21 52.00 303.00 Z"/>
</g>
<g fill="None" fill-opacity="0.0" stroke="#020202" stroke-opacity="0.13" stroke-width="0.3"><path d="
M 39.00 313.00 
C 40.63 311.92 42.34 311.15 44.00 310.00
C 46.40 308.34 49.91 306.23 52.00 304.00
C 52.00 304.00 51.85 303.05 52.00 303.00
C 47.53 306.23 43.14 309.57 39.00 313.00 Z"/>
</g>
<g fill="None" fill-opacity="0.0" stroke="#020202" stroke-opacity="0.19" stroke-width="0.3"><path d="
M 739.00 307.00 
C 741.28 308.56 743.63 309.37 746.00 311.00
C 742.96 308.27 739.62 305.33 736.00 303.00
C 737.08 303.93 737.89 305.99 739.00 307.00 Z"/>
</g>
<g fill="None" fill-opacity="0.0" stroke="#010101" stroke-opacity="0.76" stroke-width="0.3"><path d="
M 44.00 310.00 
C 47.77 308.05 48.92 306.68 52.00 304.00
C 49.91 306.23 46.40 308.34 44.00 310.00 Z"/>
</g>
<g fill="None" fill-opacity="0.0" stroke="#000000" stroke-opacity="0.00" stroke-width="0.3"><path d="
M 667.00 338.00 
C 667.00 345.33 667.00 352.67 667.00 360.00
C 484.67 360.00 302.33 360.00 120.00 360.00
C 120.00 352.67 120.00 345.33 120.00 338.00
C 113.60 339.26 106.24 327.49 98.00 331.00 C 89.76 334.51 79.34 329.78 74.00 325.00
C 67.20 327.02 62.97 334.30 56.00 336.00
C 56.00 336.00 55.38 335.78 55.00 336.00
C 51.30 338.12 45.23 337.00 41.00 337.00
C 30.57 337.00 18.59 338.02 9.00 336.00
C 6.16 335.40 3.17 334.40 0.00 335.00
L 0.00 498.00
L 786.00 498.00
L 786.00 335.00
C 784.04 334.77 781.95 335.31 780.00 335.00
C 778.83 335.32 777.95 336.71 776.00 337.00
C 765.85 338.52 754.28 337.00 744.00 337.00
C 740.42 337.00 736.90 337.23 734.00 336.00
C 733.50 336.00 732.47 336.13 732.00 336.00
C 718.37 329.63 707.89 316.84 694.00 311.00
C 691.25 316.28 683.67 319.68 680.75 324.75 C 677.83 329.82 668.88 332.90 667.00 338.00
M 610.00 392.00 
C 610.37 395.87 613.93 407.69 610.67 411.67 C 607.41 415.65 596.77 412.12 591.00 413.00 C 585.23 413.88 575.49 412.58 569.00 413.00 C 562.51 413.42 554.81 412.81 548.00 413.00 C 541.19 413.19 534.01 412.92 527.00 413.00 C 519.99 413.08 512.07 412.96 505.00 413.00 C 497.93 413.04 491.07 412.98 484.00 413.00 C 476.93 413.02 470.12 412.99 463.00 413.00 C 455.88 413.01 448.13 413.00 441.00 413.00 C 433.87 413.00 427.10 413.00 420.00 413.00 C 412.90 413.00 406.13 413.00 399.00 413.00 C 391.87 413.00 384.13 413.00 377.00 413.00 C 369.87 413.00 363.09 413.00 356.00 413.00 C 348.91 413.00 342.11 413.01 335.00 413.00 C 327.89 412.99 320.09 413.02 313.00 413.00 C 305.91 412.98 299.01 413.04 292.00 413.00 C 284.99 412.96 277.92 413.08 271.00 413.00 C 264.08 412.92 255.69 413.17 249.00 413.00 C 242.31 412.83 234.09 413.40 228.00 413.00 C 221.91 412.60 211.87 413.90 207.00 413.00 C 202.13 412.10 188.03 415.81 187.00 411.00
C 183.00 411.00 179.00 411.00 175.00 411.00
C 175.00 401.67 175.00 392.33 175.00 383.00
C 320.00 383.00 465.00 383.00 610.00 383.00
C 610.00 386.00 610.00 389.00 610.00 392.00
M 523.00 435.00 
C 523.00 444.33 523.00 453.67 523.00 463.00
C 433.33 463.00 343.67 463.00 254.00 463.00
C 254.00 453.67 254.00 444.33 254.00 435.00
C 343.66 435.00 433.34 435.00 523.00 435.00 Z"/>
</g>
<g fill="None" fill-opacity="0.0" stroke="#0F0F0F" stroke-opacity="0.23" stroke-width="0.3"><path d="
M 56.00 336.00 
C 62.97 334.30 67.20 327.02 74.00 325.00
C 79.34 329.78 89.76 334.51 98.00 331.00 C 106.24 327.49 113.60 339.26 120.00 338.00
C 120.00 337.50 120.07 336.49 120.00 336.00
C 112.27 324.23 91.83 331.67 81.00 327.00
C 79.29 325.99 76.95 324.22 77.00 322.00
C 79.00 321.70 79.62 318.97 81.00 318.00
C 73.65 323.25 61.17 328.07 56.00 336.00 Z"/>
</g>
<g fill="None" fill-opacity="0.0" stroke="#010101" stroke-opacity="0.77" stroke-width="0.3"><path d="
M 764.00 325.00 
C 763.59 324.55 763.37 323.34 763.00 323.00
C 760.75 321.61 758.13 320.59 756.00 319.00
C 758.47 321.28 761.05 323.12 764.00 325.00 Z"/>
</g>
<g fill="None" fill-opacity="0.0" stroke="#030303" stroke-opacity="0.55" stroke-width="0.3"><path d="
M 19.00 327.00 
C 18.75 327.27 19.00 328.00 19.00 328.00
C 22.39 325.81 25.80 323.96 29.00 321.00
C 25.94 322.91 22.34 324.71 19.00 327.00 Z"/>
</g>
<g fill="None" fill-opacity="0.0" stroke="#030303" stroke-opacity="0.44" stroke-width="0.3"><path d="
M 764.00 325.00 
C 767.15 327.01 770.51 328.94 774.00 331.00
C 770.50 328.36 766.90 325.42 763.00 323.00
C 763.37 323.34 763.59 324.55 764.00 325.00 Z"/>
</g>
<g fill="None" fill-opacity="0.0" stroke="#0A0A0A" stroke-opacity="0.22" stroke-width="0.3"><path d="
M 0.00 333.00 
L 0.00 335.00
C 3.17 334.40 6.16 335.40 9.00 336.00
C 9.12 336.02 9.75 335.25 10.00 335.00
C 12.64 332.30 16.09 330.54 19.00 328.00
C 19.00 328.00 18.75 327.27 19.00 327.00
C 13.17 331.00 7.93 335.00 0.00 333.00 Z"/>
</g>
<g fill="None" fill-opacity="0.0" stroke="#000000" stroke-opacity="1.00" stroke-width="0.3"><path d="
M 120.00 336.00 
C 120.07 336.49 120.00 337.50 120.00 338.00
C 120.00 345.33 120.00 352.67 120.00 360.00
C 302.33 360.00 484.67 360.00 667.00 360.00
C 667.00 352.67 667.00 345.33 667.00 338.00
C 667.00 336.58 666.57 334.34 667.00 333.00
C 485.66 330.67 302.17 332.67 120.00 332.00
C 120.14 333.31 119.82 334.69 120.00 336.00 Z"/>
</g>
<g fill="None" fill-opacity="0.0" stroke="#111111" stroke-opacity="0.18" stroke-width="0.3"><path d="
M 780.00 335.00 
C 781.95 335.31 784.04 334.77 786.00 335.00
L 786.00 333.00
C 783.36 332.79 780.64 333.29 778.00 333.00
C 779.06 333.65 778.43 334.75 780.00 335.00 Z"/>
</g>
<g fill="None" fill-opacity="0.0" stroke="#000000" stroke-opacity="0.78" stroke-width="0.3"><path d="
M 9.00 336.00 
C 18.59 338.02 30.57 337.00 41.00 337.00
C 40.96 337.00 41.00 336.00 41.00 336.00
C 30.84 336.00 19.72 337.06 10.00 335.00
C 9.75 335.25 9.12 336.02 9.00 336.00 Z"/>
</g>
<g fill="None" fill-opacity="0.0" stroke="#040404" stroke-opacity="0.21" stroke-width="0.3"><path d="
M 41.00 336.00 
C 41.00 336.00 40.96 337.00 41.00 337.00
C 45.23 337.00 51.30 338.12 55.00 336.00
C 52.69 334.79 44.66 336.00 41.00 336.00 Z"/>
</g>
<g fill="None" fill-opacity="0.0" stroke="#181818" stroke-opacity="0.20" stroke-width="0.3"><path d="
M 744.00 337.00 
C 743.96 337.00 744.00 336.00 744.00 336.00
C 740.67 336.00 737.33 336.00 734.00 336.00
C 736.90 337.23 740.42 337.00 744.00 337.00 Z"/>
</g>
<g fill="None" fill-opacity="0.0" stroke="#070707" stroke-opacity="0.52" stroke-width="0.3"><path d="
M 744.00 337.00 
C 754.28 337.00 765.85 338.52 776.00 337.00
C 766.61 337.50 754.29 336.00 744.00 336.00
C 744.00 336.00 743.96 337.00 744.00 337.00 Z"/>
</g>
<g fill="None" fill-opacity="0.0" stroke="#000000" stroke-opacity="1.00" stroke-width="0.3"><path d="
M 187.00 411.00 
C 187.50 411.00 188.00 411.00 188.00 411.00
C 328.67 411.00 469.33 411.00 610.00 411.00
C 612.09 408.01 610.00 395.82 610.00 392.00
C 610.00 389.00 610.00 386.00 610.00 383.00
C 465.00 383.00 320.00 383.00 175.00 383.00
C 175.00 392.33 175.00 401.67 175.00 411.00
C 179.00 411.00 183.00 411.00 187.00 411.00 Z"/>
</g>
<g fill="None" fill-opacity="0.0" stroke="#010101" stroke-opacity="0.20" stroke-width="0.3"><path d="
M 610.00 411.00 
C 606.98 415.32 594.69 410.72 589.00 412.00 C 583.31 413.28 573.64 411.43 567.00 412.00 C 560.36 412.57 552.12 411.75 545.00 412.00 C 537.88 412.25 529.30 411.88 522.00 412.00 C 514.70 412.12 507.36 411.95 500.00 412.00 C 492.64 412.05 485.43 411.98 478.00 412.00 C 470.57 412.02 462.45 411.99 455.00 412.00 C 447.55 412.01 440.42 412.00 433.00 412.00 C 425.58 412.00 418.46 412.00 411.00 412.00 C 403.54 412.00 395.46 412.00 388.00 412.00 C 380.54 412.00 373.43 412.00 366.00 412.00 C 358.57 412.00 351.46 412.01 344.00 412.00 C 336.54 411.99 328.45 412.02 321.00 412.00 C 313.55 411.98 306.39 412.05 299.00 412.00 C 291.61 411.95 284.37 412.12 277.00 412.00 C 269.63 411.88 261.26 412.25 254.00 412.00 C 246.74 411.75 238.96 412.58 232.00 412.00 C 225.04 411.42 216.41 413.30 210.00 412.00 C 203.59 410.70 193.47 415.05 188.33 411.67
C 188.00 411.00 187.50 411.00 187.00 411.00
C 188.03 415.81 202.13 412.10 207.00 413.00 C 211.87 413.90 221.91 412.60 228.00 413.00 C 234.09 413.40 242.31 412.83 249.00 413.00 C 255.69 413.17 264.08 412.92 271.00 413.00 C 277.92 413.08 284.99 412.96 292.00 413.00 C 299.01 413.04 305.91 412.98 313.00 413.00 C 320.09 413.02 327.89 412.99 335.00 413.00 C 342.11 413.01 348.91 413.00 356.00 413.00 C 363.09 413.00 369.87 413.00 377.00 413.00 C 384.13 413.00 391.87 413.00 399.00 413.00 C 406.13 413.00 412.90 413.00 420.00 413.00 C 427.10 413.00 433.87 413.00 441.00 413.00 C 448.13 413.00 455.88 413.01 463.00 413.00 C 470.12 412.99 476.93 413.02 484.00 413.00 C 491.07 412.98 497.93 413.04 505.00 413.00 C 512.07 412.96 519.99 413.08 527.00 413.00 C 534.01 412.92 541.19 413.19 548.00 413.00 C 554.81 412.81 562.51 413.42 569.00 413.00 C 575.49 412.58 585.23 413.88 591.00 413.00 C 596.77 412.12 607.41 415.65 610.67 411.67 C 613.93 407.69 610.37 395.87 610.00 392.00
C 610.00 395.82 612.09 408.01 610.00 411.00 Z"/>
</g>
<g fill="None" fill-opacity="0.0" stroke="#232323" stroke-opacity="0.61" stroke-width="0.3"><path d="
M 610.00 411.00 
C 469.33 411.00 328.67 411.00 188.00 411.00
C 193.47 415.05 203.59 410.70 210.00 412.00 C 216.41 413.30 225.04 411.42 232.00 412.00 C 238.96 412.58 246.74 411.75 254.00 412.00 C 261.26 412.25 269.63 411.88 277.00 412.00 C 284.37 412.12 291.61 411.95 299.00 412.00 C 306.39 412.05 313.55 411.98 321.00 412.00 C 328.45 412.02 336.54 411.99 344.00 412.00 C 351.46 412.01 358.57 412.00 366.00 412.00 C 373.43 412.00 380.54 412.00 388.00 412.00 C 395.46 412.00 403.54 412.00 411.00 412.00 C 418.46 412.00 425.58 412.00 433.00 412.00 C 440.42 412.00 447.55 412.01 455.00 412.00 C 462.45 411.99 470.57 412.02 478.00 412.00 C 485.43 411.98 492.64 412.05 500.00 412.00 C 507.36 411.95 514.70 412.12 522.00 412.00 C 529.30 411.88 537.88 412.25 545.00 412.00 C 552.12 411.75 560.36 412.57 567.00 412.00 C 573.64 411.43 583.31 413.28 589.00 412.00 C 594.69 410.72 606.98 415.32 610.00 411.00 Z"/>
</g>
<g fill="None" fill-opacity="0.0" stroke="#000000" stroke-opacity="1.00" stroke-width="0.3"><path d="
M 523.00 435.00 
C 433.34 435.00 343.66 435.00 254.00 435.00
C 254.00 444.33 254.00 453.67 254.00 463.00
C 343.67 463.00 433.33 463.00 523.00 463.00
C 523.00 453.67 523.00 444.33 523.00 435.00 Z"/>
</g>
<g fill="#000000" fill-opacity="0.00" stroke="None">
<path d="
M 0.00 333.00 
C 7.93 335.00 13.17 331.00 19.00 327.00
C 22.34 324.71 25.94 322.91 29.00 321.00
C 32.01 318.22 35.65 315.23 39.00 313.00
C 43.14 309.57 47.53 306.23 52.00 303.00
C 57.47 301.21 64.38 295.37 69.00 292.00
C 73.30 288.87 77.33 284.90 82.00 282.00
C 82.36 281.78 83.00 282.00 83.00 282.00
C 86.94 276.36 96.02 270.30 102.00 267.00
C 107.11 264.18 111.30 262.17 115.00 258.00
C 120.92 251.35 129.00 246.53 136.00 241.00
C 138.38 239.12 140.56 238.50 143.00 237.00
C 148.44 232.16 155.47 226.58 162.00 221.00
C 172.86 211.72 184.99 203.10 195.00 193.00
C 195.70 192.04 196.18 191.72 197.00 191.00
C 202.80 185.89 209.08 179.96 215.00 175.00
C 235.57 157.77 254.79 134.95 272.00 115.00
C 273.61 113.14 275.18 111.56 277.00 110.00
C 281.33 105.31 285.91 99.74 290.00 95.00
C 292.29 92.34 294.87 89.47 297.00 87.00
C 298.31 85.48 299.52 84.26 301.00 83.00
C 304.49 78.99 307.43 74.67 311.00 71.00
C 313.41 68.51 315.90 65.44 318.00 63.00
C 321.89 58.49 325.57 53.79 330.00 50.00
C 334.36 44.64 337.31 38.06 343.00 34.00
C 345.47 32.24 348.57 30.22 351.00 29.00
C 355.22 26.89 365.64 28.55 373.00 28.00 C 380.36 27.45 390.27 28.35 397.00 29.00
C 412.07 29.00 436.72 24.41 449.00 33.00
C 456.46 38.22 460.23 46.68 466.00 53.00
C 467.20 54.00 468.02 54.88 469.00 56.00
C 470.53 57.74 472.25 59.40 474.00 61.00
C 478.60 65.21 483.36 69.91 487.00 75.00
C 488.12 76.57 488.71 78.53 490.00 80.00
C 491.50 81.28 492.71 82.62 494.00 84.00
C 498.14 88.43 502.93 92.24 507.00 97.00
C 510.46 101.05 514.94 104.71 518.00 109.00
C 519.90 111.65 521.64 114.64 524.00 117.00
C 527.64 120.64 531.60 124.18 535.00 128.00
C 537.18 130.45 539.59 133.59 542.00 136.00
C 547.37 140.59 552.09 146.09 557.00 151.00
C 567.68 161.68 578.12 173.62 590.00 183.00
C 593.63 185.87 597.24 189.35 600.00 193.00
C 600.63 193.84 601.29 195.34 602.00 196.00
C 605.43 198.45 608.31 200.59 611.00 204.00
C 617.86 210.34 625.85 215.83 633.00 222.00
C 637.71 226.06 642.09 230.50 647.00 234.00
C 656.97 241.12 672.05 251.09 679.00 261.00
C 679.30 261.24 680.00 261.00 680.00 261.00
C 689.49 265.64 698.01 275.43 706.00 282.00
C 707.47 282.95 709.43 283.86 711.00 285.00
C 719.35 291.08 727.54 297.54 736.00 303.00
C 739.62 305.33 742.96 308.27 746.00 311.00
C 749.11 313.80 752.98 316.20 756.00 319.00
C 758.13 320.59 760.75 321.61 763.00 323.00
C 766.90 325.42 770.50 328.36 774.00 331.00
C 775.63 332.23 775.73 332.75 778.00 333.00
C 780.64 333.29 783.36 332.79 786.00 333.00
L 786.00 0.00
L 0.00 0.00
L 0.00 333.00 Z"/>
</g>
<g fill="#555555" fill-opacity="0.00" stroke="None">
<path d="
M 351.00 29.00 
C 364.64 25.83 382.93 29.00 397.00 29.00
C 390.27 28.35 380.36 27.45 373.00 28.00 C 365.64 28.55 355.22 26.89 351.00 29.00 Z"/>
</g>
<g fill="#000000" fill-opacity="1.00" stroke="None">
<path d="
M 343.00 34.00 
C 338.08 38.46 335.33 45.45 330.00 50.00
C 325.57 53.79 321.89 58.49 318.00 63.00
C 316.85 64.78 313.14 68.39 311.00 71.00
C 307.82 74.87 305.03 79.56 301.00 83.00
C 299.52 84.26 298.31 85.48 297.00 87.00
C 295.45 89.40 291.61 95.12 289.00 98.00
C 285.33 102.04 281.02 106.57 277.00 110.00
C 275.18 111.56 273.61 113.14 272.00 115.00
C 258.42 135.99 233.78 156.22 215.00 175.00
C 208.65 181.35 201.73 187.59 196.00 194.00
C 195.47 192.72 196.97 192.14 197.00 191.00
C 196.18 191.72 195.70 192.04 195.00 193.00
C 187.57 203.18 171.58 214.80 162.00 221.00
C 155.47 226.58 148.44 232.16 143.00 237.00
C 139.36 240.24 133.41 244.55 131.00 246.00
C 125.95 250.19 118.20 255.02 115.00 258.00
C 111.30 262.17 107.11 264.18 102.00 267.00
C 99.54 268.74 94.25 274.98 92.08 276.08 C 89.92 277.19 83.55 282.31 83.00 282.00
C 83.00 282.00 82.36 281.78 82.00 282.00
C 80.33 287.19 73.26 288.83 69.00 292.00
C 64.75 295.16 57.49 303.41 52.00 304.00
C 48.92 306.68 47.77 308.05 44.00 310.00
C 42.34 311.15 40.63 311.92 39.00 313.00
C 35.65 315.23 32.01 318.22 29.00 321.00
C 25.80 323.96 22.39 325.81 19.00 328.00
C 16.09 330.54 12.64 332.30 10.00 335.00
C 19.72 337.06 30.84 336.00 41.00 336.00
C 44.66 336.00 52.69 334.79 55.00 336.00
C 55.38 335.78 56.00 336.00 56.00 336.00
C 61.17 328.07 73.65 323.25 81.00 318.00
C 104.00 301.57 127.32 283.97 150.08 267.08 C 172.84 250.19 196.72 233.28 217.00 213.00
C 219.01 210.65 220.47 209.61 223.00 208.00
C 223.27 207.83 223.68 207.20 224.00 207.00
C 228.53 201.19 234.47 195.73 240.00 191.00
C 251.00 181.60 262.07 170.57 271.75 159.75 C 281.43 148.93 295.42 139.26 303.00 127.00
C 303.20 126.68 303.79 126.27 304.00 126.00
C 311.66 116.16 320.96 107.41 329.00 98.00
C 332.84 93.51 337.15 89.12 341.00 85.00
C 347.23 78.33 353.07 70.94 359.00 64.00
C 368.99 52.31 389.42 57.00 404.00 57.00
C 409.64 57.00 416.14 57.74 421.00 58.00
C 423.94 57.86 425.37 57.20 428.00 58.00
C 431.79 59.15 434.48 63.05 437.00 66.00
C 438.35 67.58 439.69 69.47 441.00 71.00
C 445.77 75.77 450.56 80.81 455.00 86.00
C 458.42 90.00 462.18 93.97 465.00 98.00
C 467.55 101.11 471.36 103.91 474.00 107.00
C 477.74 111.38 481.66 115.50 485.00 120.00
C 488.62 124.15 493.41 127.80 497.00 132.00
C 501.64 137.43 506.96 142.34 511.00 148.00
C 529.84 170.48 554.47 190.47 575.00 211.00
C 577.65 213.27 580.40 215.78 583.00 218.00
C 586.89 221.32 590.26 225.74 594.00 229.00
C 617.43 246.42 638.15 266.32 661.70 283.30 C 685.25 300.29 709.48 317.96 732.00 336.00
C 732.47 336.13 733.50 336.00 734.00 336.00
C 737.33 336.00 740.67 336.00 744.00 336.00
C 754.29 336.00 766.61 337.50 776.00 337.00
C 777.95 336.71 778.83 335.32 780.00 335.00
C 778.43 334.75 779.06 333.65 778.00 333.00
C 775.73 332.75 775.63 332.23 774.00 331.00
C 770.51 328.94 767.15 327.01 764.00 325.00
C 761.05 323.12 758.47 321.28 756.00 319.00
C 752.98 316.20 749.11 313.80 746.00 311.00
C 743.63 309.37 741.28 308.56 739.00 307.00
C 729.16 300.25 719.70 293.04 711.00 285.00
C 709.43 283.86 707.47 282.95 706.00 282.00
C 696.94 276.16 686.70 268.66 680.00 261.00
C 680.00 261.00 679.30 261.24 679.00 261.00
C 668.38 252.50 658.33 244.27 647.00 234.00
C 642.09 230.50 637.71 226.06 633.00 222.00
C 624.83 216.28 616.96 211.55 611.00 204.00
C 608.31 200.59 605.43 198.45 602.00 196.00
C 586.62 185.02 566.49 164.96 557.00 151.00
C 552.09 146.09 547.37 140.59 542.00 136.00
C 539.76 134.08 537.01 132.05 535.00 130.00
C 531.46 126.39 528.07 121.07 524.00 117.00
C 521.04 114.04 517.41 110.18 516.00 108.00
C 514.32 106.43 512.75 104.49 511.00 103.00
C 504.95 97.83 497.46 89.34 494.00 84.00
C 492.71 82.62 491.50 81.28 490.00 80.00
C 481.98 73.15 473.71 63.46 469.00 56.00
C 468.02 54.88 467.20 54.00 466.00 53.00
C 459.29 47.43 456.21 38.92 449.00 33.00
C 436.72 24.41 412.07 29.00 397.00 29.00
C 382.93 29.00 364.64 25.83 351.00 29.00
C 348.57 30.22 345.47 32.24 343.00 34.00 Z"/>
</g>
<g fill="#010101" fill-opacity="0.49" stroke="None">
<path d="
M 466.00 53.00 
C 460.23 46.68 456.46 38.22 449.00 33.00
C 456.21 38.92 459.29 47.43 466.00 53.00 Z"/>
</g>
<g fill="#010101" fill-opacity="0.48" stroke="None">
<path d="
M 330.00 50.00 
C 335.33 45.45 338.08 38.46 343.00 34.00
C 337.31 38.06 334.36 44.64 330.00 50.00 Z"/>
</g>
<g fill="#010101" fill-opacity="0.76" stroke="None">
<path d="
M 490.00 80.00 
C 488.71 78.53 488.12 76.57 487.00 75.00
C 483.03 70.26 478.20 65.49 474.00 61.00
C 472.25 59.40 470.53 57.74 469.00 56.00
C 473.71 63.46 481.98 73.15 490.00 80.00 Z"/>
</g>
<g fill="#2A2A2A" fill-opacity="0.74" stroke="None">
<path d="
M 359.00 64.00 
C 369.43 53.57 389.92 58.00 404.00 58.00
C 403.96 58.00 404.00 57.00 404.00 57.00
C 389.42 57.00 368.99 52.31 359.00 64.00 Z"/>
</g>
<g fill="#525252" fill-opacity="0.75" stroke="None">
<path d="
M 404.00 58.00 
C 409.64 58.00 415.36 58.27 421.00 58.00
C 416.14 57.74 409.64 57.00 404.00 57.00
C 404.00 57.00 403.96 58.00 404.00 58.00 Z"/>
</g>
<g fill="#070707" fill-opacity="0.31" stroke="None">
<path d="
M 421.00 58.00 
C 415.36 58.27 409.64 58.00 404.00 58.00
C 389.92 58.00 369.43 53.57 359.00 64.00
C 353.07 70.94 347.23 78.33 341.00 85.00
C 337.40 89.84 333.26 93.74 329.00 98.00
C 320.96 107.41 311.66 116.16 304.00 126.00
C 308.47 126.35 315.87 115.34 320.25 111.25 C 324.62 107.16 330.45 98.26 335.75 93.75 C 341.06 89.25 345.31 80.52 351.25 76.25 C 357.18 71.97 359.21 61.33 367.00 59.00
C 380.62 54.92 399.37 62.49 413.00 59.00 C 426.63 55.51 436.16 66.16 443.75 75.25 C 451.34 84.33 457.17 91.73 464.78 100.22 C 472.38 108.72 480.49 116.07 487.25 124.75 C 494.00 133.43 503.87 140.24 510.00 149.00
C 518.53 159.39 530.17 168.66 539.75 178.25 C 549.34 187.84 558.67 199.51 569.00 208.00
C 590.47 223.03 606.62 245.03 628.25 259.75 C 649.87 274.47 669.21 294.28 692.00 307.00
C 685.55 316.56 675.41 324.80 667.00 333.00
C 666.57 334.34 667.00 336.58 667.00 338.00
C 668.88 332.90 677.83 329.82 680.75 324.75 C 683.67 319.68 691.25 316.28 694.00 311.00
C 707.89 316.84 718.37 329.63 732.00 336.00
C 709.48 317.96 685.25 300.29 661.70 283.30 C 638.15 266.32 617.43 246.42 594.00 229.00
C 589.82 225.89 586.58 221.58 583.00 218.00
C 580.40 215.78 577.65 213.27 575.00 211.00
C 563.96 201.56 552.60 191.32 542.75 180.25 C 532.91 169.18 519.56 159.98 511.00 148.00
C 506.96 142.34 501.64 137.43 497.00 132.00
C 493.04 128.04 488.35 124.50 485.00 120.00
C 481.66 115.50 477.74 111.38 474.00 107.00
C 471.02 104.02 467.43 101.48 465.00 98.00
C 462.18 93.97 458.42 90.00 455.00 86.00
C 450.04 81.04 445.47 76.23 441.00 71.00
C 439.69 69.47 438.35 67.58 437.00 66.00
C 434.75 63.75 430.69 59.11 428.00 58.00
C 425.37 57.20 423.94 57.86 421.00 58.00 Z"/>
</g>
<g fill="#131313" fill-opacity="0.67" stroke="None">
<path d="
M 437.00 66.00 
C 434.48 63.05 431.79 59.15 428.00 58.00
C 430.69 59.11 434.75 63.75 437.00 66.00 Z"/>
</g>
<g fill="#0E0E0E" fill-opacity="0.11" stroke="None">
<path d="
M 304.00 126.00 
C 303.79 126.27 303.20 126.68 303.00 127.00
C 304.77 132.89 289.75 141.06 285.25 147.25 C 280.74 153.44 270.59 161.35 264.75 167.75 C 258.91 174.15 250.75 181.92 244.25 188.25 C 237.75 194.57 230.63 203.56 223.00 208.00
C 220.47 209.61 219.01 210.65 217.00 213.00
C 197.81 235.45 174.15 250.27 151.75 267.75 C 129.35 285.23 103.98 301.75 81.00 318.00
C 79.62 318.97 79.00 321.70 77.00 322.00
C 76.95 324.22 79.29 325.99 81.00 327.00
C 80.35 326.63 78.10 323.25 78.00 322.00
C 130.26 284.36 184.64 248.01 233.25 201.25 C 281.85 154.49 325.25 107.50 367.00 59.00
C 359.21 61.33 357.18 71.97 351.25 76.25 C 345.31 80.52 341.06 89.25 335.75 93.75 C 330.45 98.26 324.62 107.16 320.25 111.25 C 315.87 115.34 308.47 126.35 304.00 126.00 Z"/>
</g>
<g fill="#000000" fill-opacity="0.00" stroke="None">
<path d="
M 81.00 327.00 
C 91.83 331.67 112.27 324.23 120.00 336.00
C 119.82 334.69 120.14 333.31 120.00 332.00
C 302.17 332.67 485.66 330.67 667.00 333.00
C 675.41 324.80 685.55 316.56 692.00 307.00
C 669.21 294.28 649.87 274.47 628.25 259.75 C 606.62 245.03 590.47 223.03 569.00 208.00
C 558.07 200.35 548.71 188.21 539.25 178.75 C 529.78 169.29 517.61 159.87 510.00 149.00
C 503.87 140.24 494.00 133.43 487.25 124.75 C 480.49 116.07 472.38 108.72 464.78 100.22 C 457.17 91.73 451.34 84.33 443.75 75.25 C 436.16 66.16 426.63 55.51 413.00 59.00 C 399.37 62.49 380.62 54.92 367.00 59.00
C 325.25 107.50 281.85 154.49 233.25 201.25 C 184.64 248.01 130.26 284.36 78.00 322.00
C 78.10 323.25 80.35 326.63 81.00 327.00
M 430.00 140.00 
C 427.17 146.17 422.42 136.67 430.00 140.00
M 534.00 224.00 
C 534.32 224.20 534.85 224.66 535.00 225.00
C 551.22 236.22 571.16 251.52 584.00 268.00
C 584.32 268.20 584.81 268.68 585.00 269.00
C 588.25 271.25 606.46 283.25 604.00 288.00
C 604.01 288.03 603.01 289.99 603.00 290.00
C 600.02 292.91 588.34 291.00 584.00 291.00
C 576.84 291.00 574.64 289.64 569.00 286.00
C 560.88 280.76 554.25 273.08 547.00 267.00
C 540.81 261.82 534.23 256.12 528.00 251.00
C 524.36 248.01 519.96 245.25 517.00 241.00
C 516.60 240.80 516.00 241.00 516.00 241.00
C 511.38 237.47 506.41 233.88 503.00 229.00
C 502.60 228.80 502.00 229.00 502.00 229.00
C 494.71 225.44 486.63 218.43 479.92 214.08 C 473.21 209.73 462.29 204.60 458.00 198.00
C 457.64 197.78 457.00 198.00 457.00 198.00
C 452.80 195.38 449.53 192.29 446.00 189.00
C 445.39 188.62 444.55 188.38 444.00 188.00
C 440.18 185.39 437.44 181.83 434.00 179.00
C 433.14 178.29 429.25 175.90 428.00 176.00
C 423.36 181.02 418.44 186.75 413.25 191.25 C 408.05 195.75 403.72 202.63 398.25 206.25 C 392.78 209.87 388.47 220.31 382.00 221.00
C 381.28 221.43 379.59 220.33 379.00 220.00
C 363.48 211.48 354.09 191.30 340.00 181.00
C 337.29 180.79 331.22 186.48 329.00 188.00
C 327.29 189.17 325.59 190.04 324.00 191.00
C 319.03 195.08 314.15 199.06 309.00 203.00
C 308.68 203.24 308.00 203.00 308.00 203.00
C 304.06 209.05 290.82 216.86 284.00 219.00
C 276.80 219.65 269.23 219.00 262.00 219.00
C 258.79 219.00 254.40 219.77 252.00 218.00
C 251.70 217.78 251.04 217.35 251.00 217.00
C 250.11 209.15 264.96 202.43 270.75 197.75 C 276.55 193.07 287.18 185.68 293.75 180.75 C 300.33 175.83 309.86 167.91 316.75 163.75 C 323.64 159.59 333.14 147.73 341.00 148.00
C 341.50 148.02 342.00 148.00 342.00 148.00
C 351.10 149.78 353.31 162.98 361.25 167.75 C 369.19 172.52 373.05 183.29 380.00 189.00
C 396.98 176.98 407.48 155.50 426.00 145.00
C 426.47 144.89 427.00 145.00 427.00 145.00
C 437.99 143.35 446.17 158.39 455.30 162.70 C 464.42 167.01 475.20 175.09 483.75 181.25 C 492.30 187.40 501.52 194.29 509.75 201.25 C 517.98 208.21 527.05 215.08 534.00 224.00 Z"/>
</g>
<g fill="#010101" fill-opacity="0.24" stroke="None">
<path d="
M 487.00 75.00 
C 483.36 69.91 478.60 65.21 474.00 61.00
C 478.20 65.49 483.03 70.26 487.00 75.00 Z"/>
</g>
<g fill="#020202" fill-opacity="0.65" stroke="None">
<path d="
M 311.00 71.00 
C 313.14 68.39 316.85 64.78 318.00 63.00
C 315.90 65.44 313.41 68.51 311.00 71.00 Z"/>
</g>
<g fill="#010101" fill-opacity="0.47" stroke="None">
<path d="
M 301.00 83.00 
C 305.03 79.56 307.82 74.87 311.00 71.00
C 307.43 74.67 304.49 78.99 301.00 83.00 Z"/>
</g>
<g fill="#0F0F0F" fill-opacity="0.60" stroke="None">
<path d="
M 455.00 86.00 
C 450.56 80.81 445.77 75.77 441.00 71.00
C 445.47 76.23 450.04 81.04 455.00 86.00 Z"/>
</g>
<g fill="#010101" fill-opacity="0.60" stroke="None">
<path d="
M 511.00 103.00 
C 509.28 101.28 507.42 97.64 507.00 97.00
C 502.93 92.24 498.14 88.43 494.00 84.00
C 497.46 89.34 504.95 97.83 511.00 103.00 Z"/>
</g>
<g fill="#0E0E0E" fill-opacity="0.60" stroke="None">
<path d="
M 329.00 98.00 
C 333.26 93.74 337.40 89.84 341.00 85.00
C 337.15 89.12 332.84 93.51 329.00 98.00 Z"/>
</g>
<g fill="#010101" fill-opacity="0.72" stroke="None">
<path d="
M 290.00 95.00 
C 289.58 95.88 289.65 97.10 289.00 98.00
C 291.61 95.12 295.45 89.40 297.00 87.00
C 294.87 89.47 292.29 92.34 290.00 95.00 Z"/>
</g>
<g fill="#020202" fill-opacity="0.55" stroke="None">
<path d="
M 277.00 110.00 
C 281.02 106.57 285.33 102.04 289.00 98.00
C 289.65 97.10 289.58 95.88 290.00 95.00
C 285.91 99.74 281.33 105.31 277.00 110.00 Z"/>
</g>
<g fill="#020202" fill-opacity="0.20" stroke="None">
<path d="
M 511.00 103.00 
C 512.75 104.49 514.32 106.43 516.00 108.00
C 516.45 108.42 517.65 108.62 518.00 109.00
C 514.94 104.71 510.46 101.05 507.00 97.00
C 507.42 97.64 509.28 101.28 511.00 103.00 Z"/>
</g>
<g fill="#0E0E0E" fill-opacity="0.58" stroke="None">
<path d="
M 474.00 107.00 
C 471.36 103.91 467.55 101.11 465.00 98.00
C 467.43 101.48 471.02 104.02 474.00 107.00 Z"/>
</g>
<g fill="#020202" fill-opacity="0.68" stroke="None">
<path d="
M 524.00 117.00 
C 521.64 114.64 519.90 111.65 518.00 109.00
C 517.65 108.62 516.45 108.42 516.00 108.00
C 517.41 110.18 521.04 114.04 524.00 117.00 Z"/>
</g>
<g fill="#030303" fill-opacity="0.51" stroke="None">
<path d="
M 215.00 175.00 
C 233.78 156.22 258.42 135.99 272.00 115.00
C 254.79 134.95 235.57 157.77 215.00 175.00 Z"/>
</g>
<g fill="#000000" fill-opacity="0.82" stroke="None">
<path d="
M 535.00 130.00 
C 534.76 129.69 535.15 128.45 535.00 128.00
C 531.60 124.18 527.64 120.64 524.00 117.00
C 528.07 121.07 531.46 126.39 535.00 130.00 Z"/>
</g>
<g fill="#0D0D0D" fill-opacity="0.64" stroke="None">
<path d="
M 497.00 132.00 
C 493.41 127.80 488.62 124.15 485.00 120.00
C 488.35 124.50 493.04 128.04 497.00 132.00 Z"/>
</g>
<g fill="#080808" fill-opacity="0.40" stroke="None">
<path d="
M 240.00 191.00 
C 234.93 196.07 230.14 203.21 224.00 207.00
C 223.68 207.20 223.27 207.83 223.00 208.00
C 230.63 203.56 237.75 194.57 244.25 188.25 C 250.75 181.92 258.91 174.15 264.75 167.75 C 270.59 161.35 280.74 153.44 285.25 147.25 C 289.75 141.06 304.77 132.89 303.00 127.00
C 295.42 139.26 281.43 148.93 271.75 159.75 C 262.07 170.57 251.00 181.60 240.00 191.00 Z"/>
</g>
<g fill="#050505" fill-opacity="0.58" stroke="None">
<path d="
M 535.00 130.00 
C 537.01 132.05 539.76 134.08 542.00 136.00
C 539.59 133.59 537.18 130.45 535.00 128.00
C 535.15 128.45 534.76 129.69 535.00 130.00 Z"/>
</g>
<g fill="#000000" fill-opacity="0.40" stroke="None">
<path d="
M 430.00 140.00 
C 422.42 136.67 427.17 146.17 430.00 140.00 Z"/>
</g>
<g fill="#060606" fill-opacity="0.30" stroke="None">
<path d="
M 342.00 148.00 
C 344.56 151.67 348.47 154.39 351.00 158.00
C 354.09 162.41 358.34 166.71 362.00 171.00
C 366.32 175.32 370.29 179.30 374.00 184.00
C 382.95 195.33 390.87 182.58 397.00 174.00
C 403.72 164.59 414.88 153.98 424.00 147.00
C 424.86 146.35 425.31 145.66 426.00 145.00
C 407.48 155.50 396.98 176.98 380.00 189.00
C 373.05 183.29 369.19 172.52 361.25 167.75 C 353.31 162.98 351.10 149.78 342.00 148.00 Z"/>
</g>
<g fill="#000000" fill-opacity="1.00" stroke="None">
<path d="
M 424.00 147.00 
C 415.29 155.64 404.80 164.69 397.00 174.00
C 390.87 182.58 382.95 195.33 374.00 184.00
C 369.92 179.92 365.82 175.47 362.00 171.00
C 358.34 166.71 354.09 162.41 351.00 158.00
C 348.51 154.97 344.18 151.22 341.00 149.00
C 333.05 153.56 324.94 159.07 317.77 164.77 C 310.60 170.47 301.72 176.18 294.92 181.92 C 288.12 187.66 278.48 192.63 272.75 198.75 C 267.02 204.88 252.60 208.83 251.00 217.00
C 251.04 217.35 251.70 217.78 252.00 218.00
C 255.18 218.46 258.78 218.00 262.00 218.00
C 269.23 218.00 276.80 217.35 284.00 218.00
C 292.39 213.51 299.93 208.02 308.00 203.00
C 308.00 203.00 308.68 203.24 309.00 203.00
C 312.62 197.83 318.79 194.16 324.00 191.00
C 325.59 190.04 327.29 189.17 329.00 188.00
C 337.94 180.28 341.71 179.46 348.77 188.23 C 355.83 197.00 359.63 199.63 367.00 207.00
C 369.99 209.99 373.32 212.74 376.00 216.00
C 376.86 217.05 377.98 219.28 379.00 220.00
C 379.59 220.33 381.28 221.43 382.00 221.00
C 382.05 220.99 382.00 220.00 382.00 220.00
C 389.87 212.94 399.24 202.04 407.25 195.25 C 415.25 188.45 425.10 170.10 434.00 179.00
C 437.17 182.17 440.82 185.03 444.00 188.00
C 444.55 188.38 445.39 188.62 446.00 189.00
C 449.67 191.28 454.66 194.41 457.00 198.00
C 457.00 198.00 457.64 197.78 458.00 198.00
C 465.46 202.64 473.01 207.89 480.08 212.92 C 487.16 217.95 496.78 221.54 502.00 229.00
C 502.00 229.00 502.60 228.80 503.00 229.00
C 507.51 231.21 513.15 236.92 516.00 241.00
C 516.00 241.00 516.60 240.80 517.00 241.00
C 521.39 243.15 524.42 248.06 528.00 251.00
C 534.01 255.94 540.72 262.42 547.00 267.00
C 554.62 272.55 561.79 279.72 569.00 286.00
C 574.64 289.64 576.84 291.00 584.00 291.00
C 588.02 290.61 599.07 291.80 603.00 290.00
C 603.01 289.99 604.01 288.03 604.00 288.00
C 603.92 287.75 603.20 287.32 603.00 287.00
C 597.88 283.01 593.48 277.38 588.00 274.00
C 587.68 273.80 587.26 273.22 587.00 273.00
C 585.61 272.16 584.81 271.34 584.00 270.00
C 583.78 269.74 583.27 269.21 583.00 269.00
C 581.26 267.93 579.50 266.28 578.00 265.00
C 573.51 261.17 569.26 256.68 565.00 253.00
C 551.75 243.91 540.21 231.44 528.00 221.00
C 524.28 217.82 520.50 214.02 517.00 211.00
C 489.62 187.37 459.37 164.51 429.00 146.00
C 427.46 145.72 428.07 145.72 427.00 145.00
C 427.00 145.00 426.47 144.89 426.00 145.00
C 425.31 145.66 424.86 146.35 424.00 147.00 Z"/>
</g>
<g fill="#111111" fill-opacity="0.08" stroke="None">
<path d="
M 429.00 146.00 
C 442.74 148.51 452.83 164.76 465.75 170.25 C 478.67 175.74 489.06 188.53 501.25 195.75 C 513.43 202.98 521.84 216.48 534.00 224.00
C 527.05 215.08 517.98 208.21 509.75 201.25 C 501.52 194.29 492.30 187.40 483.75 181.25 C 475.20 175.09 464.42 167.01 455.30 162.70 C 446.17 158.39 437.99 143.35 427.00 145.00
C 428.07 145.72 427.46 145.72 429.00 146.00 Z"/>
</g>
<g fill="#070707" fill-opacity="0.35" stroke="None">
<path d="
M 517.00 211.00 
C 521.03 213.82 524.39 217.38 528.00 221.00
C 540.21 231.44 551.75 243.91 565.00 253.00
C 570.00 256.43 573.74 260.74 578.00 265.00
C 579.50 266.28 581.26 267.93 583.00 269.00
C 583.32 269.20 583.81 269.68 584.00 270.00
C 584.81 271.34 585.61 272.16 587.00 273.00
C 587.32 273.19 587.73 273.79 588.00 274.00
C 593.48 277.38 597.88 283.01 603.00 287.00
C 598.59 279.87 589.02 275.75 585.00 269.00
C 584.81 268.68 584.32 268.20 584.00 268.00
C 578.23 264.44 573.18 257.84 567.97 254.03 C 562.77 250.21 555.66 243.59 551.32 239.68 C 546.99 235.77 536.92 229.35 535.00 225.00
C 534.85 224.66 534.32 224.20 534.00 224.00
C 521.84 216.48 513.43 202.98 501.25 195.75 C 489.06 188.53 478.67 175.74 465.75 170.25 C 452.83 164.76 442.74 148.51 429.00 146.00
C 459.37 164.51 489.62 187.37 517.00 211.00 Z"/>
</g>
<g fill="#101010" fill-opacity="0.59" stroke="None">
<path d="
M 397.00 174.00 
C 404.80 164.69 415.29 155.64 424.00 147.00
C 414.88 153.98 403.72 164.59 397.00 174.00 Z"/>
</g>
<g fill="#070707" fill-opacity="0.36" stroke="None">
<path d="
M 251.00 217.00 
C 252.60 208.83 267.02 204.88 272.75 198.75 C 278.48 192.63 288.12 187.66 294.92 181.92 C 301.72 176.18 310.60 170.47 317.77 164.77 C 324.94 159.07 333.05 153.56 341.00 149.00
C 340.77 148.84 341.00 148.00 341.00 148.00
C 333.14 147.73 323.64 159.59 316.75 163.75 C 309.86 167.91 300.33 175.83 293.75 180.75 C 287.18 185.68 276.55 193.07 270.75 197.75 C 264.96 202.43 250.11 209.15 251.00 217.00 Z"/>
</g>
<g fill="#0C0C0C" fill-opacity="0.52" stroke="None">
<path d="
M 341.00 149.00 
C 344.18 151.22 348.51 154.97 351.00 158.00
C 348.47 154.39 344.56 151.67 342.00 148.00
C 342.00 148.00 341.50 148.02 341.00 148.00
C 341.00 148.00 340.77 148.84 341.00 149.00 Z"/>
</g>
<g fill="#0A0A0A" fill-opacity="0.51" stroke="None">
<path d="
M 575.00 211.00 
C 554.47 190.47 529.84 170.48 511.00 148.00
C 519.56 159.98 532.91 169.18 542.75 180.25 C 552.60 191.32 563.96 201.56 575.00 211.00 Z"/>
</g>
<g fill="#141414" fill-opacity="0.20" stroke="None">
<path d="
M 569.00 208.00 
C 558.67 199.51 549.34 187.84 539.75 178.25 C 530.17 168.66 518.53 159.39 510.00 149.00
C 517.61 159.87 529.78 169.29 539.25 178.75 C 548.71 188.21 558.07 200.35 569.00 208.00 Z"/>
</g>
<g fill="#020202" fill-opacity="0.61" stroke="None">
<path d="
M 602.00 196.00 
C 601.29 195.34 600.63 193.84 600.00 193.00
C 597.04 189.77 593.17 185.93 590.00 183.00
C 578.12 173.62 567.68 161.68 557.00 151.00
C 566.49 164.96 586.62 185.02 602.00 196.00 Z"/>
</g>
<g fill="#0F0F0F" fill-opacity="0.63" stroke="None">
<path d="
M 374.00 184.00 
C 370.29 179.30 366.32 175.32 362.00 171.00
C 365.82 175.47 369.92 179.92 374.00 184.00 Z"/>
</g>
<g fill="#010101" fill-opacity="0.69" stroke="None">
<path d="
M 197.00 191.00 
C 196.97 192.14 195.47 192.72 196.00 194.00
C 201.73 187.59 208.65 181.35 215.00 175.00
C 209.08 179.96 202.80 185.89 197.00 191.00 Z"/>
</g>
<g fill="#060606" fill-opacity="0.58" stroke="None">
<path d="
M 382.00 220.00 
C 388.23 217.96 392.44 209.43 397.75 205.75 C 403.07 202.07 407.43 193.73 412.75 190.75 C 418.07 187.77 422.20 176.48 428.00 176.00
C 429.25 175.90 433.14 178.29 434.00 179.00
C 425.10 170.10 415.25 188.45 407.25 195.25 C 399.24 202.04 389.87 212.94 382.00 220.00 Z"/>
</g>
<g fill="#101010" fill-opacity="0.12" stroke="None">
<path d="
M 382.00 220.00 
C 382.00 220.00 382.05 220.99 382.00 221.00
C 388.47 220.31 392.78 209.87 398.25 206.25 C 403.72 202.63 408.05 195.75 413.25 191.25 C 418.44 186.75 423.36 181.02 428.00 176.00
C 422.20 176.48 418.07 187.77 412.75 190.75 C 407.43 193.73 403.07 202.07 397.75 205.75 C 392.44 209.43 388.23 217.96 382.00 220.00 Z"/>
</g>
<g fill="#090909" fill-opacity="0.41" stroke="None">
<path d="
M 444.00 188.00 
C 440.82 185.03 437.17 182.17 434.00 179.00
C 437.44 181.83 440.18 185.39 444.00 188.00 Z"/>
</g>
<g fill="#090909" fill-opacity="0.49" stroke="None">
<path d="
M 329.00 188.00 
C 331.22 186.48 337.29 180.79 340.00 181.00
C 344.65 181.35 349.28 190.76 353.25 193.75 C 357.22 196.74 363.37 203.37 367.00 207.00
C 359.63 199.63 355.83 197.00 348.77 188.23 C 341.71 179.46 337.94 180.28 329.00 188.00 Z"/>
</g>
<g fill="#030303" fill-opacity="0.20" stroke="None">
<path d="
M 379.00 220.00 
C 377.98 219.28 376.86 217.05 376.00 216.00
C 373.17 213.06 369.85 209.85 367.00 207.00
C 363.37 203.37 357.22 196.74 353.25 193.75 C 349.28 190.76 344.65 181.35 340.00 181.00
C 354.09 191.30 363.48 211.48 379.00 220.00 Z"/>
</g>
<g fill="#000000" fill-opacity="0.17" stroke="None">
<path d="
M 600.00 193.00 
C 597.24 189.35 593.63 185.87 590.00 183.00
C 593.17 185.93 597.04 189.77 600.00 193.00 Z"/>
</g>
<g fill="#080808" fill-opacity="0.51" stroke="None">
<path d="
M 457.00 198.00 
C 454.66 194.41 449.67 191.28 446.00 189.00
C 449.53 192.29 452.80 195.38 457.00 198.00 Z"/>
</g>
<g fill="#131313" fill-opacity="0.64" stroke="None">
<path d="
M 224.00 207.00 
C 230.14 203.21 234.93 196.07 240.00 191.00
C 234.47 195.73 228.53 201.19 224.00 207.00 Z"/>
</g>
<g fill="#070707" fill-opacity="0.49" stroke="None">
<path d="
M 309.00 203.00 
C 314.15 199.06 319.03 195.08 324.00 191.00
C 318.79 194.16 312.62 197.83 309.00 203.00 Z"/>
</g>
<g fill="#010101" fill-opacity="0.68" stroke="None">
<path d="
M 162.00 221.00 
C 171.58 214.80 187.57 203.18 195.00 193.00
C 184.99 203.10 172.86 211.72 162.00 221.00 Z"/>
</g>
<g fill="#080808" fill-opacity="0.47" stroke="None">
<path d="
M 502.00 229.00 
C 496.78 221.54 487.16 217.95 480.08 212.92 C 473.01 207.89 465.46 202.64 458.00 198.00
C 462.29 204.60 473.21 209.73 479.92 214.08 C 486.63 218.43 494.71 225.44 502.00 229.00 Z"/>
</g>
<g fill="#080808" fill-opacity="0.45" stroke="None">
<path d="
M 284.00 218.00 
C 283.79 218.11 284.00 219.00 284.00 219.00
C 290.82 216.86 304.06 209.05 308.00 203.00
C 299.93 208.02 292.39 213.51 284.00 218.00 Z"/>
</g>
<g fill="#010101" fill-opacity="0.48" stroke="None">
<path d="
M 633.00 222.00 
C 625.85 215.83 617.86 210.34 611.00 204.00
C 616.96 211.55 624.83 216.28 633.00 222.00 Z"/>
</g>
<g fill="#0B0B0B" fill-opacity="0.76" stroke="None">
<path d="
M 376.00 216.00 
C 373.32 212.74 369.99 209.99 367.00 207.00
C 369.85 209.85 373.17 213.06 376.00 216.00 Z"/>
</g>
<g fill="#0E0E0E" fill-opacity="0.64" stroke="None">
<path d="
M 528.00 221.00 
C 524.39 217.38 521.03 213.82 517.00 211.00
C 520.50 214.02 524.28 217.82 528.00 221.00 Z"/>
</g>
<g fill="#070707" fill-opacity="0.37" stroke="None">
<path d="
M 81.00 318.00 
C 103.98 301.75 129.35 285.23 151.75 267.75 C 174.15 250.27 197.81 235.45 217.00 213.00
C 196.72 233.28 172.84 250.19 150.08 267.08 C 127.32 283.97 104.00 301.57 81.00 318.00 Z"/>
</g>
<g fill="#050505" fill-opacity="0.24" stroke="None">
<path d="
M 262.00 219.00 
C 261.96 219.00 262.00 218.00 262.00 218.00
C 258.78 218.00 255.18 218.46 252.00 218.00
C 254.40 219.77 258.79 219.00 262.00 219.00 Z"/>
</g>
<g fill="#030303" fill-opacity="0.60" stroke="None">
<path d="
M 262.00 219.00 
C 269.23 219.00 276.80 219.65 284.00 219.00
C 284.00 219.00 283.79 218.11 284.00 218.00
C 276.80 217.35 269.23 218.00 262.00 218.00
C 262.00 218.00 261.96 219.00 262.00 219.00 Z"/>
</g>
<g fill="#121212" fill-opacity="0.63" stroke="None">
<path d="
M 594.00 229.00 
C 590.26 225.74 586.89 221.32 583.00 218.00
C 586.58 221.58 589.82 225.89 594.00 229.00 Z"/>
</g>
<g fill="#121212" fill-opacity="0.07" stroke="None">
<path d="
M 584.00 268.00 
C 571.16 251.52 551.22 236.22 535.00 225.00
C 536.92 229.35 546.99 235.77 551.32 239.68 C 555.66 243.59 562.77 250.21 567.97 254.03 C 573.18 257.84 578.23 264.44 584.00 268.00 Z"/>
</g>
<g fill="#080808" fill-opacity="0.55" stroke="None">
<path d="
M 516.00 241.00 
C 513.15 236.92 507.51 231.21 503.00 229.00
C 506.41 233.88 511.38 237.47 516.00 241.00 Z"/>
</g>
<g fill="#010101" fill-opacity="0.41" stroke="None">
<path d="
M 679.00 261.00 
C 672.05 251.09 656.97 241.12 647.00 234.00
C 658.33 244.27 668.38 252.50 679.00 261.00 Z"/>
</g>
<g fill="#010101" fill-opacity="0.67" stroke="None">
<path d="
M 136.00 241.00 
C 134.30 242.57 132.78 244.52 131.00 246.00
C 133.41 244.55 139.36 240.24 143.00 237.00
C 140.56 238.50 138.38 239.12 136.00 241.00 Z"/>
</g>
<g fill="#020202" fill-opacity="0.30" stroke="None">
<path d="
M 115.00 258.00 
C 118.20 255.02 125.95 250.19 131.00 246.00
C 132.78 244.52 134.30 242.57 136.00 241.00
C 129.00 246.53 120.92 251.35 115.00 258.00 Z"/>
</g>
<g fill="#060606" fill-opacity="0.58" stroke="None">
<path d="
M 528.00 251.00 
C 524.42 248.06 521.39 243.15 517.00 241.00
C 519.96 245.25 524.36 248.01 528.00 251.00 Z"/>
</g>
<g fill="#070707" fill-opacity="0.45" stroke="None">
<path d="
M 547.00 267.00 
C 540.72 262.42 534.01 255.94 528.00 251.00
C 534.23 256.12 540.81 261.82 547.00 267.00 Z"/>
</g>
<g fill="#0D0D0D" fill-opacity="0.60" stroke="None">
<path d="
M 578.00 265.00 
C 573.74 260.74 570.00 256.43 565.00 253.00
C 569.26 256.68 573.51 261.17 578.00 265.00 Z"/>
</g>
<g fill="#020202" fill-opacity="0.45" stroke="None">
<path d="
M 706.00 282.00 
C 698.01 275.43 689.49 265.64 680.00 261.00
C 686.70 268.66 696.94 276.16 706.00 282.00 Z"/>
</g>
<g fill="#010101" fill-opacity="0.47" stroke="None">
<path d="
M 83.00 282.00 
C 83.55 282.31 89.92 277.19 92.08 276.08 C 94.25 274.98 99.54 268.74 102.00 267.00
C 96.02 270.30 86.94 276.36 83.00 282.00 Z"/>
</g>
<g fill="#060606" fill-opacity="0.58" stroke="None">
<path d="
M 569.00 286.00 
C 561.79 279.72 554.62 272.55 547.00 267.00
C 554.25 273.08 560.88 280.76 569.00 286.00 Z"/>
</g>
<g fill="#151515" fill-opacity="0.46" stroke="None">
<path d="
M 584.00 270.00 
C 583.81 269.68 583.32 269.20 583.00 269.00
C 583.27 269.21 583.78 269.74 584.00 270.00 Z"/>
</g>
<g fill="#0D0D0D" fill-opacity="0.13" stroke="None">
<path d="
M 603.00 287.00 
C 603.20 287.32 603.92 287.75 604.00 288.00
C 606.46 283.25 588.25 271.25 585.00 269.00
C 589.02 275.75 598.59 279.87 603.00 287.00 Z"/>
</g>
<g fill="#0F0F0F" fill-opacity="0.86" stroke="None">
<path d="
M 588.00 274.00 
C 587.73 273.79 587.32 273.19 587.00 273.00
C 587.26 273.22 587.68 273.80 588.00 274.00 Z"/>
</g>
<g fill="#010101" fill-opacity="0.69" stroke="None">
<path d="
M 69.00 292.00 
C 73.26 288.83 80.33 287.19 82.00 282.00
C 77.33 284.90 73.30 288.87 69.00 292.00 Z"/>
</g>
<g fill="#010101" fill-opacity="0.62" stroke="None">
<path d="
M 739.00 307.00 
C 737.89 305.99 737.08 303.93 736.00 303.00
C 727.54 297.54 719.35 291.08 711.00 285.00
C 719.70 293.04 729.16 300.25 739.00 307.00 Z"/>
</g>
<g fill="#5F5F5F" fill-opacity="0.24" stroke="None">
<path d="
M 584.00 291.00 
C 588.34 291.00 600.02 292.91 603.00 290.00
C 599.07 291.80 588.02 290.61 584.00 291.00 Z"/>
</g>
<g fill="#010101" fill-opacity="0.55" stroke="None">
<path d="
M 52.00 303.00 
C 51.85 303.05 52.00 304.00 52.00 304.00
C 57.49 303.41 64.75 295.16 69.00 292.00
C 64.38 295.37 57.47 301.21 52.00 303.00 Z"/>
</g>
<g fill="#020202" fill-opacity="0.13" stroke="None">
<path d="
M 39.00 313.00 
C 40.63 311.92 42.34 311.15 44.00 310.00
C 46.40 308.34 49.91 306.23 52.00 304.00
C 52.00 304.00 51.85 303.05 52.00 303.00
C 47.53 306.23 43.14 309.57 39.00 313.00 Z"/>
</g>
<g fill="#020202" fill-opacity="0.19" stroke="None">
<path d="
M 739.00 307.00 
C 741.28 308.56 743.63 309.37 746.00 311.00
C 742.96 308.27 739.62 305.33 736.00 303.00
C 737.08 303.93 737.89 305.99 739.00 307.00 Z"/>
</g>
<g fill="#010101" fill-opacity="0.76" stroke="None">
<path d="
M 44.00 310.00 
C 47.77 308.05 48.92 306.68 52.00 304.00
C 49.91 306.23 46.40 308.34 44.00 310.00 Z"/>
</g>
<g fill="#000000" fill-opacity="0.00" stroke="None">
<path d="
M 667.00 338.00 
C 667.00 345.33 667.00 352.67 667.00 360.00
C 484.67 360.00 302.33 360.00 120.00 360.00
C 120.00 352.67 120.00 345.33 120.00 338.00
C 113.60 339.26 106.24 327.49 98.00 331.00 C 89.76 334.51 79.34 329.78 74.00 325.00
C 67.20 327.02 62.97 334.30 56.00 336.00
C 56.00 336.00 55.38 335.78 55.00 336.00
C 51.30 338.12 45.23 337.00 41.00 337.00
C 30.57 337.00 18.59 338.02 9.00 336.00
C 6.16 335.40 3.17 334.40 0.00 335.00
L 0.00 498.00
L 786.00 498.00
L 786.00 335.00
C 784.04 334.77 781.95 335.31 780.00 335.00
C 778.83 335.32 777.95 336.71 776.00 337.00
C 765.85 338.52 754.28 337.00 744.00 337.00
C 740.42 337.00 736.90 337.23 734.00 336.00
C 733.50 336.00 732.47 336.13 732.00 336.00
C 718.37 329.63 707.89 316.84 694.00 311.00
C 691.25 316.28 683.67 319.68 680.75 324.75 C 677.83 329.82 668.88 332.90 667.00 338.00
M 610.00 392.00 
C 610.37 395.87 613.93 407.69 610.67 411.67 C 607.41 415.65 596.77 412.12 591.00 413.00 C 585.23 413.88 575.49 412.58 569.00 413.00 C 562.51 413.42 554.81 412.81 548.00 413.00 C 541.19 413.19 534.01 412.92 527.00 413.00 C 519.99 413.08 512.07 412.96 505.00 413.00 C 497.93 413.04 491.07 412.98 484.00 413.00 C 476.93 413.02 470.12 412.99 463.00 413.00 C 455.88 413.01 448.13 413.00 441.00 413.00 C 433.87 413.00 427.10 413.00 420.00 413.00 C 412.90 413.00 406.13 413.00 399.00 413.00 C 391.87 413.00 384.13 413.00 377.00 413.00 C 369.87 413.00 363.09 413.00 356.00 413.00 C 348.91 413.00 342.11 413.01 335.00 413.00 C 327.89 412.99 320.09 413.02 313.00 413.00 C 305.91 412.98 299.01 413.04 292.00 413.00 C 284.99 412.96 277.92 413.08 271.00 413.00 C 264.08 412.92 255.69 413.17 249.00 413.00 C 242.31 412.83 234.09 413.40 228.00 413.00 C 221.91 412.60 211.87 413.90 207.00 413.00 C 202.13 412.10 188.03 415.81 187.00 411.00
C 183.00 411.00 179.00 411.00 175.00 411.00
C 175.00 401.67 175.00 392.33 175.00 383.00
C 320.00 383.00 465.00 383.00 610.00 383.00
C 610.00 386.00 610.00 389.00 610.00 392.00
M 523.00 435.00 
C 523.00 444.33 523.00 453.67 523.00 463.00
C 433.33 463.00 343.67 463.00 254.00 463.00
C 254.00 453.67 254.00 444.33 254.00 435.00
C 343.66 435.00 433.34 435.00 523.00 435.00 Z"/>
</g>
<g fill="#0F0F0F" fill-opacity="0.23" stroke="None">
<path d="
M 56.00 336.00 
C 62.97 334.30 67.20 327.02 74.00 325.00
C 79.34 329.78 89.76 334.51 98.00 331.00 C 106.24 327.49 113.60 339.26 120.00 338.00
C 120.00 337.50 120.07 336.49 120.00 336.00
C 112.27 324.23 91.83 331.67 81.00 327.00
C 79.29 325.99 76.95 324.22 77.00 322.00
C 79.00 321.70 79.62 318.97 81.00 318.00
C 73.65 323.25 61.17 328.07 56.00 336.00 Z"/>
</g>
<g fill="#010101" fill-opacity="0.77" stroke="None">
<path d="
M 764.00 325.00 
C 763.59 324.55 763.37 323.34 763.00 323.00
C 760.75 321.61 758.13 320.59 756.00 319.00
C 758.47 321.28 761.05 323.12 764.00 325.00 Z"/>
</g>
<g fill="#030303" fill-opacity="0.55" stroke="None">
<path d="
M 19.00 327.00 
C 18.75 327.27 19.00 328.00 19.00 328.00
C 22.39 325.81 25.80 323.96 29.00 321.00
C 25.94 322.91 22.34 324.71 19.00 327.00 Z"/>
</g>
<g fill="#030303" fill-opacity="0.44" stroke="None">
<path d="
M 764.00 325.00 
C 767.15 327.01 770.51 328.94 774.00 331.00
C 770.50 328.36 766.90 325.42 763.00 323.00
C 763.37 323.34 763.59 324.55 764.00 325.00 Z"/>
</g>
<g fill="#0A0A0A" fill-opacity="0.22" stroke="None">
<path d="
M 0.00 333.00 
L 0.00 335.00
C 3.17 334.40 6.16 335.40 9.00 336.00
C 9.12 336.02 9.75 335.25 10.00 335.00
C 12.64 332.30 16.09 330.54 19.00 328.00
C 19.00 328.00 18.75 327.27 19.00 327.00
C 13.17 331.00 7.93 335.00 0.00 333.00 Z"/>
</g>
<g fill="#000000" fill-opacity="1.00" stroke="None">
<path d="
M 120.00 336.00 
C 120.07 336.49 120.00 337.50 120.00 338.00
C 120.00 345.33 120.00 352.67 120.00 360.00
C 302.33 360.00 484.67 360.00 667.00 360.00
C 667.00 352.67 667.00 345.33 667.00 338.00
C 667.00 336.58 666.57 334.34 667.00 333.00
C 485.66 330.67 302.17 332.67 120.00 332.00
C 120.14 333.31 119.82 334.69 120.00 336.00 Z"/>
</g>
<g fill="#111111" fill-opacity="0.18" stroke="None">
<path d="
M 780.00 335.00 
C 781.95 335.31 784.04 334.77 786.00 335.00
L 786.00 333.00
C 783.36 332.79 780.64 333.29 778.00 333.00
C 779.06 333.65 778.43 334.75 780.00 335.00 Z"/>
</g>
<g fill="#000000" fill-opacity="0.78" stroke="None">
<path d="
M 9.00 336.00 
C 18.59 338.02 30.57 337.00 41.00 337.00
C 40.96 337.00 41.00 336.00 41.00 336.00
C 30.84 336.00 19.72 337.06 10.00 335.00
C 9.75 335.25 9.12 336.02 9.00 336.00 Z"/>
</g>
<g fill="#040404" fill-opacity="0.21" stroke="None">
<path d="
M 41.00 336.00 
C 41.00 336.00 40.96 337.00 41.00 337.00
C 45.23 337.00 51.30 338.12 55.00 336.00
C 52.69 334.79 44.66 336.00 41.00 336.00 Z"/>
</g>
<g fill="#181818" fill-opacity="0.20" stroke="None">
<path d="
M 744.00 337.00 
C 743.96 337.00 744.00 336.00 744.00 336.00
C 740.67 336.00 737.33 336.00 734.00 336.00
C 736.90 337.23 740.42 337.00 744.00 337.00 Z"/>
</g>
<g fill="#070707" fill-opacity="0.52" stroke="None">
<path d="
M 744.00 337.00 
C 754.28 337.00 765.85 338.52 776.00 337.00
C 766.61 337.50 754.29 336.00 744.00 336.00
C 744.00 336.00 743.96 337.00 744.00 337.00 Z"/>
</g>
<g fill="#000000" fill-opacity="1.00" stroke="None">
<path d="
M 187.00 411.00 
C 187.50 411.00 188.00 411.00 188.00 411.00
C 328.67 411.00 469.33 411.00 610.00 411.00
C 612.09 408.01 610.00 395.82 610.00 392.00
C 610.00 389.00 610.00 386.00 610.00 383.00
C 465.00 383.00 320.00 383.00 175.00 383.00
C 175.00 392.33 175.00 401.67 175.00 411.00
C 179.00 411.00 183.00 411.00 187.00 411.00 Z"/>
</g>
<g fill="#010101" fill-opacity="0.20" stroke="None">
<path d="
M 610.00 411.00 
C 606.98 415.32 594.69 410.72 589.00 412.00 C 583.31 413.28 573.64 411.43 567.00 412.00 C 560.36 412.57 552.12 411.75 545.00 412.00 C 537.88 412.25 529.30 411.88 522.00 412.00 C 514.70 412.12 507.36 411.95 500.00 412.00 C 492.64 412.05 485.43 411.98 478.00 412.00 C 470.57 412.02 462.45 411.99 455.00 412.00 C 447.55 412.01 440.42 412.00 433.00 412.00 C 425.58 412.00 418.46 412.00 411.00 412.00 C 403.54 412.00 395.46 412.00 388.00 412.00 C 380.54 412.00 373.43 412.00 366.00 412.00 C 358.57 412.00 351.46 412.01 344.00 412.00 C 336.54 411.99 328.45 412.02 321.00 412.00 C 313.55 411.98 306.39 412.05 299.00 412.00 C 291.61 411.95 284.37 412.12 277.00 412.00 C 269.63 411.88 261.26 412.25 254.00 412.00 C 246.74 411.75 238.96 412.58 232.00 412.00 C 225.04 411.42 216.41 413.30 210.00 412.00 C 203.59 410.70 193.47 415.05 188.33 411.67
C 188.00 411.00 187.50 411.00 187.00 411.00
C 188.03 415.81 202.13 412.10 207.00 413.00 C 211.87 413.90 221.91 412.60 228.00 413.00 C 234.09 413.40 242.31 412.83 249.00 413.00 C 255.69 413.17 264.08 412.92 271.00 413.00 C 277.92 413.08 284.99 412.96 292.00 413.00 C 299.01 413.04 305.91 412.98 313.00 413.00 C 320.09 413.02 327.89 412.99 335.00 413.00 C 342.11 413.01 348.91 413.00 356.00 413.00 C 363.09 413.00 369.87 413.00 377.00 413.00 C 384.13 413.00 391.87 413.00 399.00 413.00 C 406.13 413.00 412.90 413.00 420.00 413.00 C 427.10 413.00 433.87 413.00 441.00 413.00 C 448.13 413.00 455.88 413.01 463.00 413.00 C 470.12 412.99 476.93 413.02 484.00 413.00 C 491.07 412.98 497.93 413.04 505.00 413.00 C 512.07 412.96 519.99 413.08 527.00 413.00 C 534.01 412.92 541.19 413.19 548.00 413.00 C 554.81 412.81 562.51 413.42 569.00 413.00 C 575.49 412.58 585.23 413.88 591.00 413.00 C 596.77 412.12 607.41 415.65 610.67 411.67 C 613.93 407.69 610.37 395.87 610.00 392.00
C 610.00 395.82 612.09 408.01 610.00 411.00 Z"/>
</g>
<g fill="#232323" fill-opacity="0.61" stroke="None">
<path d="
M 610.00 411.00 
C 469.33 411.00 328.67 411.00 188.00 411.00
C 193.47 415.05 203.59 410.70 210.00 412.00 C 216.41 413.30 225.04 411.42 232.00 412.00 C 238.96 412.58 246.74 411.75 254.00 412.00 C 261.26 412.25 269.63 411.88 277.00 412.00 C 284.37 412.12 291.61 411.95 299.00 412.00 C 306.39 412.05 313.55 411.98 321.00 412.00 C 328.45 412.02 336.54 411.99 344.00 412.00 C 351.46 412.01 358.57 412.00 366.00 412.00 C 373.43 412.00 380.54 412.00 388.00 412.00 C 395.46 412.00 403.54 412.00 411.00 412.00 C 418.46 412.00 425.58 412.00 433.00 412.00 C 440.42 412.00 447.55 412.01 455.00 412.00 C 462.45 411.99 470.57 412.02 478.00 412.00 C 485.43 411.98 492.64 412.05 500.00 412.00 C 507.36 411.95 514.70 412.12 522.00 412.00 C 529.30 411.88 537.88 412.25 545.00 412.00 C 552.12 411.75 560.36 412.57 567.00 412.00 C 573.64 411.43 583.31 413.28 589.00 412.00 C 594.69 410.72 606.98 415.32 610.00 411.00 Z"/>
</g>
<g fill="#000000" fill-opacity="1.00" stroke="None">
<path d="
M 523.00 435.00 
C 433.34 435.00 343.66 435.00 254.00 435.00
C 254.00 444.33 254.00 453.67 254.00 463.00
C 343.67 463.00 433.33 463.00 523.00 463.00
C 523.00 453.67 523.00 444.33 523.00 435.00 Z"/>
</g>
</svg>